solid OpenSCAD_Model
  facet normal 1 -0 0
    outer loop
      vertex 30 -20 30
      vertex 30 20 -30
      vertex 30 20 30
    endloop
  endfacet
  facet normal 1 0 0
    outer loop
      vertex 30 20 -30
      vertex 30 -20 30
      vertex 30 -20 -30
    endloop
  endfacet
  facet normal 0 0 1
    outer loop
      vertex 30 20 30
      vertex 2.5 0 30
      vertex 30 -20 30
    endloop
  endfacet
  facet normal 0 0 1
    outer loop
      vertex 30 20 30
      vertex 2.49507 0.156976 30
      vertex 2.5 0 30
    endloop
  endfacet
  facet normal 0 0 1
    outer loop
      vertex 30 20 30
      vertex 2.48029 0.313333 30
      vertex 2.49507 0.156976 30
    endloop
  endfacet
  facet normal 0 0 1
    outer loop
      vertex 30 20 30
      vertex 2.45572 0.468452 30
      vertex 2.48029 0.313333 30
    endloop
  endfacet
  facet normal 0 0 1
    outer loop
      vertex 30 20 30
      vertex 2.42146 0.621724 30
      vertex 2.45572 0.468452 30
    endloop
  endfacet
  facet normal 0 0 1
    outer loop
      vertex 30 20 30
      vertex 2.37764 0.772542 30
      vertex 2.42146 0.621724 30
    endloop
  endfacet
  facet normal 0 0 1
    outer loop
      vertex 30 20 30
      vertex 2.32444 0.920311 30
      vertex 2.37764 0.772542 30
    endloop
  endfacet
  facet normal 0 0 1
    outer loop
      vertex 30 20 30
      vertex 2.26207 1.06445 30
      vertex 2.32444 0.920311 30
    endloop
  endfacet
  facet normal 0 0 1
    outer loop
      vertex 30 20 30
      vertex 2.19077 1.20438 30
      vertex 2.26207 1.06445 30
    endloop
  endfacet
  facet normal 0 0 1
    outer loop
      vertex 30 20 30
      vertex 2.11082 1.33957 30
      vertex 2.19077 1.20438 30
    endloop
  endfacet
  facet normal 0 0 1
    outer loop
      vertex 30 20 30
      vertex 2.02254 1.46946 30
      vertex 2.11082 1.33957 30
    endloop
  endfacet
  facet normal 0 0 1
    outer loop
      vertex 30 20 30
      vertex 1.92628 1.59356 30
      vertex 2.02254 1.46946 30
    endloop
  endfacet
  facet normal 0 0 1
    outer loop
      vertex 30 20 30
      vertex 1.82242 1.71137 30
      vertex 1.92628 1.59356 30
    endloop
  endfacet
  facet normal 0 0 1
    outer loop
      vertex 30 20 30
      vertex 1.71137 1.82242 30
      vertex 1.82242 1.71137 30
    endloop
  endfacet
  facet normal 0 0 1
    outer loop
      vertex 30 20 30
      vertex 1.59356 1.92628 30
      vertex 1.71137 1.82242 30
    endloop
  endfacet
  facet normal 0 0 1
    outer loop
      vertex 30 20 30
      vertex 1.46946 2.02254 30
      vertex 1.59356 1.92628 30
    endloop
  endfacet
  facet normal 0 0 1
    outer loop
      vertex 30 20 30
      vertex 1.33957 2.11082 30
      vertex 1.46946 2.02254 30
    endloop
  endfacet
  facet normal 0 0 1
    outer loop
      vertex 30 20 30
      vertex 1.20438 2.19077 30
      vertex 1.33957 2.11082 30
    endloop
  endfacet
  facet normal 0 0 1
    outer loop
      vertex 30 20 30
      vertex 1.06445 2.26207 30
      vertex 1.20438 2.19077 30
    endloop
  endfacet
  facet normal 0 0 1
    outer loop
      vertex 30 20 30
      vertex 0.920311 2.32444 30
      vertex 1.06445 2.26207 30
    endloop
  endfacet
  facet normal 0 0 1
    outer loop
      vertex 30 20 30
      vertex 0.772542 2.37764 30
      vertex 0.920311 2.32444 30
    endloop
  endfacet
  facet normal 0 0 1
    outer loop
      vertex 30 20 30
      vertex 0.621724 2.42146 30
      vertex 0.772542 2.37764 30
    endloop
  endfacet
  facet normal 0 0 1
    outer loop
      vertex 30 20 30
      vertex 0.468452 2.45572 30
      vertex 0.621724 2.42146 30
    endloop
  endfacet
  facet normal 0 0 1
    outer loop
      vertex 30 20 30
      vertex 0.313333 2.48029 30
      vertex 0.468452 2.45572 30
    endloop
  endfacet
  facet normal 0 0 1
    outer loop
      vertex 30 20 30
      vertex 0.156976 2.49507 30
      vertex 0.313333 2.48029 30
    endloop
  endfacet
  facet normal 0 0 1
    outer loop
      vertex 30 20 30
      vertex 0 2.5 30
      vertex 0.156976 2.49507 30
    endloop
  endfacet
  facet normal -0 0 1
    outer loop
      vertex -30 20 30
      vertex 0 2.5 30
      vertex 30 20 30
    endloop
  endfacet
  facet normal 0 0 1
    outer loop
      vertex 0 2.5 30
      vertex -30 20 30
      vertex -0.156976 2.49507 30
    endloop
  endfacet
  facet normal 0 0 1
    outer loop
      vertex -0.156976 2.49507 30
      vertex -30 20 30
      vertex -0.313333 2.48029 30
    endloop
  endfacet
  facet normal 0 0 1
    outer loop
      vertex -0.313333 2.48029 30
      vertex -30 20 30
      vertex -0.468452 2.45572 30
    endloop
  endfacet
  facet normal 0 0 1
    outer loop
      vertex -0.468452 2.45572 30
      vertex -30 20 30
      vertex -0.621724 2.42146 30
    endloop
  endfacet
  facet normal 0 0 1
    outer loop
      vertex -0.621724 2.42146 30
      vertex -30 20 30
      vertex -0.772542 2.37764 30
    endloop
  endfacet
  facet normal 0 0 1
    outer loop
      vertex -0.772542 2.37764 30
      vertex -30 20 30
      vertex -0.920311 2.32444 30
    endloop
  endfacet
  facet normal 0 0 1
    outer loop
      vertex -0.920311 2.32444 30
      vertex -30 20 30
      vertex -1.06445 2.26207 30
    endloop
  endfacet
  facet normal 0 0 1
    outer loop
      vertex -2.49507 0.156976 30
      vertex -30 20 30
      vertex -2.5 0 30
    endloop
  endfacet
  facet normal 0 0 1
    outer loop
      vertex -2.48029 0.313333 30
      vertex -30 20 30
      vertex -2.49507 0.156976 30
    endloop
  endfacet
  facet normal 0 0 1
    outer loop
      vertex -2.45572 0.468452 30
      vertex -30 20 30
      vertex -2.48029 0.313333 30
    endloop
  endfacet
  facet normal 0 0 1
    outer loop
      vertex -2.42146 0.621724 30
      vertex -30 20 30
      vertex -2.45572 0.468452 30
    endloop
  endfacet
  facet normal 0 0 1
    outer loop
      vertex -2.37764 0.772542 30
      vertex -30 20 30
      vertex -2.42146 0.621724 30
    endloop
  endfacet
  facet normal 0 0 1
    outer loop
      vertex -2.32444 0.920311 30
      vertex -30 20 30
      vertex -2.37764 0.772542 30
    endloop
  endfacet
  facet normal 0 0 1
    outer loop
      vertex -2.26207 1.06445 30
      vertex -30 20 30
      vertex -2.32444 0.920311 30
    endloop
  endfacet
  facet normal 0 0 1
    outer loop
      vertex -2.19077 1.20438 30
      vertex -30 20 30
      vertex -2.26207 1.06445 30
    endloop
  endfacet
  facet normal 0 0 1
    outer loop
      vertex -2.11082 1.33957 30
      vertex -30 20 30
      vertex -2.19077 1.20438 30
    endloop
  endfacet
  facet normal 0 0 1
    outer loop
      vertex -2.02254 1.46946 30
      vertex -30 20 30
      vertex -2.11082 1.33957 30
    endloop
  endfacet
  facet normal 0 0 1
    outer loop
      vertex -1.92628 1.59356 30
      vertex -30 20 30
      vertex -2.02254 1.46946 30
    endloop
  endfacet
  facet normal 0 0 1
    outer loop
      vertex -1.82242 1.71137 30
      vertex -30 20 30
      vertex -1.92628 1.59356 30
    endloop
  endfacet
  facet normal 0 0 1
    outer loop
      vertex -1.71137 1.82242 30
      vertex -30 20 30
      vertex -1.82242 1.71137 30
    endloop
  endfacet
  facet normal 0 0 1
    outer loop
      vertex -1.59356 1.92628 30
      vertex -30 20 30
      vertex -1.71137 1.82242 30
    endloop
  endfacet
  facet normal 0 0 1
    outer loop
      vertex -1.46946 2.02254 30
      vertex -30 20 30
      vertex -1.59356 1.92628 30
    endloop
  endfacet
  facet normal 0 0 1
    outer loop
      vertex -1.33957 2.11082 30
      vertex -30 20 30
      vertex -1.46946 2.02254 30
    endloop
  endfacet
  facet normal 0 0 1
    outer loop
      vertex -1.20438 2.19077 30
      vertex -30 20 30
      vertex -1.33957 2.11082 30
    endloop
  endfacet
  facet normal 0 0 1
    outer loop
      vertex -1.06445 2.26207 30
      vertex -30 20 30
      vertex -1.20438 2.19077 30
    endloop
  endfacet
  facet normal -0 0 1
    outer loop
      vertex 2.49507 -0.156976 30
      vertex 30 -20 30
      vertex 2.5 0 30
    endloop
  endfacet
  facet normal -0 0 1
    outer loop
      vertex 2.48029 -0.313333 30
      vertex 30 -20 30
      vertex 2.49507 -0.156976 30
    endloop
  endfacet
  facet normal -0 0 1
    outer loop
      vertex 2.45572 -0.468452 30
      vertex 30 -20 30
      vertex 2.48029 -0.313333 30
    endloop
  endfacet
  facet normal -0 0 1
    outer loop
      vertex 2.42146 -0.621724 30
      vertex 30 -20 30
      vertex 2.45572 -0.468452 30
    endloop
  endfacet
  facet normal -0 0 1
    outer loop
      vertex 2.37764 -0.772542 30
      vertex 30 -20 30
      vertex 2.42146 -0.621724 30
    endloop
  endfacet
  facet normal -0 0 1
    outer loop
      vertex 2.32444 -0.920311 30
      vertex 30 -20 30
      vertex 2.37764 -0.772542 30
    endloop
  endfacet
  facet normal -0 0 1
    outer loop
      vertex 2.26207 -1.06445 30
      vertex 30 -20 30
      vertex 2.32444 -0.920311 30
    endloop
  endfacet
  facet normal -0 0 1
    outer loop
      vertex 2.19077 -1.20438 30
      vertex 30 -20 30
      vertex 2.26207 -1.06445 30
    endloop
  endfacet
  facet normal -0 0 1
    outer loop
      vertex 2.11082 -1.33957 30
      vertex 30 -20 30
      vertex 2.19077 -1.20438 30
    endloop
  endfacet
  facet normal -0 0 1
    outer loop
      vertex 2.02254 -1.46946 30
      vertex 30 -20 30
      vertex 2.11082 -1.33957 30
    endloop
  endfacet
  facet normal -0 0 1
    outer loop
      vertex 1.92628 -1.59356 30
      vertex 30 -20 30
      vertex 2.02254 -1.46946 30
    endloop
  endfacet
  facet normal -0 0 1
    outer loop
      vertex 1.82242 -1.71137 30
      vertex 30 -20 30
      vertex 1.92628 -1.59356 30
    endloop
  endfacet
  facet normal -0 0 1
    outer loop
      vertex 1.71137 -1.82242 30
      vertex 30 -20 30
      vertex 1.82242 -1.71137 30
    endloop
  endfacet
  facet normal -0 0 1
    outer loop
      vertex 1.59356 -1.92628 30
      vertex 30 -20 30
      vertex 1.71137 -1.82242 30
    endloop
  endfacet
  facet normal -0 0 1
    outer loop
      vertex 1.46946 -2.02254 30
      vertex 30 -20 30
      vertex 1.59356 -1.92628 30
    endloop
  endfacet
  facet normal -0 0 1
    outer loop
      vertex 1.33957 -2.11082 30
      vertex 30 -20 30
      vertex 1.46946 -2.02254 30
    endloop
  endfacet
  facet normal -0 0 1
    outer loop
      vertex 1.20438 -2.19077 30
      vertex 30 -20 30
      vertex 1.33957 -2.11082 30
    endloop
  endfacet
  facet normal -0 0 1
    outer loop
      vertex 1.06445 -2.26207 30
      vertex 30 -20 30
      vertex 1.20438 -2.19077 30
    endloop
  endfacet
  facet normal -0 0 1
    outer loop
      vertex 0.920311 -2.32444 30
      vertex 30 -20 30
      vertex 1.06445 -2.26207 30
    endloop
  endfacet
  facet normal -0 0 1
    outer loop
      vertex 0.772542 -2.37764 30
      vertex 30 -20 30
      vertex 0.920311 -2.32444 30
    endloop
  endfacet
  facet normal -0 0 1
    outer loop
      vertex 0.621724 -2.42146 30
      vertex 30 -20 30
      vertex 0.772542 -2.37764 30
    endloop
  endfacet
  facet normal -0 0 1
    outer loop
      vertex 0.468452 -2.45572 30
      vertex 30 -20 30
      vertex 0.621724 -2.42146 30
    endloop
  endfacet
  facet normal -0 0 1
    outer loop
      vertex 0.313333 -2.48029 30
      vertex 30 -20 30
      vertex 0.468452 -2.45572 30
    endloop
  endfacet
  facet normal -0 0 1
    outer loop
      vertex 0.156976 -2.49507 30
      vertex 30 -20 30
      vertex 0.313333 -2.48029 30
    endloop
  endfacet
  facet normal -0 0 1
    outer loop
      vertex 0 -2.5 30
      vertex 30 -20 30
      vertex 0.156976 -2.49507 30
    endloop
  endfacet
  facet normal 0 0 1
    outer loop
      vertex -30 -20 30
      vertex 0 -2.5 30
      vertex -0.156976 -2.49507 30
    endloop
  endfacet
  facet normal 0 0 1
    outer loop
      vertex -30 -20 30
      vertex -0.156976 -2.49507 30
      vertex -0.313333 -2.48029 30
    endloop
  endfacet
  facet normal 0 0 1
    outer loop
      vertex -30 -20 30
      vertex -0.313333 -2.48029 30
      vertex -0.468452 -2.45572 30
    endloop
  endfacet
  facet normal 0 0 1
    outer loop
      vertex -30 -20 30
      vertex -0.468452 -2.45572 30
      vertex -0.621724 -2.42146 30
    endloop
  endfacet
  facet normal 0 0 1
    outer loop
      vertex -30 -20 30
      vertex -0.621724 -2.42146 30
      vertex -0.772542 -2.37764 30
    endloop
  endfacet
  facet normal 0 0 1
    outer loop
      vertex -30 -20 30
      vertex -0.772542 -2.37764 30
      vertex -0.920311 -2.32444 30
    endloop
  endfacet
  facet normal 0 0 1
    outer loop
      vertex -30 -20 30
      vertex -0.920311 -2.32444 30
      vertex -1.06445 -2.26207 30
    endloop
  endfacet
  facet normal 0 0 1
    outer loop
      vertex -30 -20 30
      vertex -1.06445 -2.26207 30
      vertex -1.20438 -2.19077 30
    endloop
  endfacet
  facet normal 0 0 1
    outer loop
      vertex -30 -20 30
      vertex -2.5 0 30
      vertex -30 20 30
    endloop
  endfacet
  facet normal 0 0 1
    outer loop
      vertex -2.5 0 30
      vertex -30 -20 30
      vertex -2.49507 -0.156976 30
    endloop
  endfacet
  facet normal 0 0 1
    outer loop
      vertex -2.49507 -0.156976 30
      vertex -30 -20 30
      vertex -2.48029 -0.313333 30
    endloop
  endfacet
  facet normal 0 0 1
    outer loop
      vertex -2.48029 -0.313333 30
      vertex -30 -20 30
      vertex -2.45572 -0.468452 30
    endloop
  endfacet
  facet normal 0 0 1
    outer loop
      vertex -2.45572 -0.468452 30
      vertex -30 -20 30
      vertex -2.42146 -0.621724 30
    endloop
  endfacet
  facet normal 0 0 1
    outer loop
      vertex -2.42146 -0.621724 30
      vertex -30 -20 30
      vertex -2.37764 -0.772542 30
    endloop
  endfacet
  facet normal 0 0 1
    outer loop
      vertex -2.37764 -0.772542 30
      vertex -30 -20 30
      vertex -2.32444 -0.920311 30
    endloop
  endfacet
  facet normal 0 0 1
    outer loop
      vertex -2.32444 -0.920311 30
      vertex -30 -20 30
      vertex -2.26207 -1.06445 30
    endloop
  endfacet
  facet normal 0 0 1
    outer loop
      vertex -2.26207 -1.06445 30
      vertex -30 -20 30
      vertex -2.19077 -1.20438 30
    endloop
  endfacet
  facet normal 0 0 1
    outer loop
      vertex -2.19077 -1.20438 30
      vertex -30 -20 30
      vertex -2.11082 -1.33957 30
    endloop
  endfacet
  facet normal 0 0 1
    outer loop
      vertex -2.11082 -1.33957 30
      vertex -30 -20 30
      vertex -2.02254 -1.46946 30
    endloop
  endfacet
  facet normal 0 0 1
    outer loop
      vertex -2.02254 -1.46946 30
      vertex -30 -20 30
      vertex -1.92628 -1.59356 30
    endloop
  endfacet
  facet normal 0 0 1
    outer loop
      vertex -1.92628 -1.59356 30
      vertex -30 -20 30
      vertex -1.82242 -1.71137 30
    endloop
  endfacet
  facet normal 0 0 1
    outer loop
      vertex -1.82242 -1.71137 30
      vertex -30 -20 30
      vertex -1.71137 -1.82242 30
    endloop
  endfacet
  facet normal 0 0 1
    outer loop
      vertex -1.71137 -1.82242 30
      vertex -30 -20 30
      vertex -1.59356 -1.92628 30
    endloop
  endfacet
  facet normal 0 0 1
    outer loop
      vertex 0 -2.5 30
      vertex -30 -20 30
      vertex 30 -20 30
    endloop
  endfacet
  facet normal 0 0 1
    outer loop
      vertex -1.33957 -2.11082 30
      vertex -30 -20 30
      vertex -1.20438 -2.19077 30
    endloop
  endfacet
  facet normal 0 0 1
    outer loop
      vertex -1.46946 -2.02254 30
      vertex -30 -20 30
      vertex -1.33957 -2.11082 30
    endloop
  endfacet
  facet normal 0 0 1
    outer loop
      vertex -1.59356 -1.92628 30
      vertex -30 -20 30
      vertex -1.46946 -2.02254 30
    endloop
  endfacet
  facet normal 0 0 -1
    outer loop
      vertex -30 -20 -30
      vertex 30 20 -30
      vertex 30 -20 -30
    endloop
  endfacet
  facet normal -0 0 -1
    outer loop
      vertex 30 20 -30
      vertex -30 -20 -30
      vertex -30 20 -30
    endloop
  endfacet
  facet normal -1 0 0
    outer loop
      vertex -30 -11 -4
      vertex -30 20 -30
      vertex -30 -11 -16
    endloop
  endfacet
  facet normal -1 0 0
    outer loop
      vertex -30 -20 -30
      vertex -30 -11 -16
      vertex -30 20 -30
    endloop
  endfacet
  facet normal -1 -0 0
    outer loop
      vertex -30 -11 -16
      vertex -30 -20 -30
      vertex -30 -20 -16
    endloop
  endfacet
  facet normal -1 0 0
    outer loop
      vertex -30 20 -30
      vertex -30 -11 -4
      vertex -30 20 30
    endloop
  endfacet
  facet normal -1 0 0
    outer loop
      vertex -30 -20 30
      vertex -30 -11 -4
      vertex -30 -20 -4
    endloop
  endfacet
  facet normal -1 0 0
    outer loop
      vertex -30 -11 -4
      vertex -30 -20 30
      vertex -30 20 30
    endloop
  endfacet
  facet normal 0 1 0
    outer loop
      vertex -25 20 -25
      vertex -25 20 -29
      vertex -29 20 -25
    endloop
  endfacet
  facet normal 0 1 0
    outer loop
      vertex 30 20 30
      vertex 25 20 29
      vertex -30 20 30
    endloop
  endfacet
  facet normal 0 1 0
    outer loop
      vertex 30 20 30
      vertex 29 20 25
      vertex 25 20 29
    endloop
  endfacet
  facet normal 0 1 0
    outer loop
      vertex 30 20 30
      vertex 29 20 -25
      vertex 29 20 25
    endloop
  endfacet
  facet normal 0 1 0
    outer loop
      vertex 29 20 -25
      vertex 25 20 -29
      vertex 25 20 -25
    endloop
  endfacet
  facet normal 0 1 0
    outer loop
      vertex 25 20 -29
      vertex 30 20 -30
      vertex -25 20 -29
    endloop
  endfacet
  facet normal 0 1 0
    outer loop
      vertex 29 20 -25
      vertex 30 20 -30
      vertex 25 20 -29
    endloop
  endfacet
  facet normal 0 1 -0
    outer loop
      vertex 30 20 -30
      vertex 29 20 -25
      vertex 30 20 30
    endloop
  endfacet
  facet normal 0 1 -0
    outer loop
      vertex -25 20 29
      vertex -30 20 30
      vertex 25 20 29
    endloop
  endfacet
  facet normal 0 1 0
    outer loop
      vertex -29 20 25
      vertex -25 20 29
      vertex -25 20 25
    endloop
  endfacet
  facet normal 0 1 0
    outer loop
      vertex -25 20 29
      vertex -29 20 25
      vertex -30 20 30
    endloop
  endfacet
  facet normal 0 1 -0
    outer loop
      vertex -29 20 -25
      vertex -30 20 30
      vertex -29 20 25
    endloop
  endfacet
  facet normal 0 1 0
    outer loop
      vertex -29 20 -25
      vertex -30 20 -30
      vertex -30 20 30
    endloop
  endfacet
  facet normal 0 1 0
    outer loop
      vertex -25 20 -29
      vertex -30 20 -30
      vertex -29 20 -25
    endloop
  endfacet
  facet normal 0 1 0
    outer loop
      vertex -30 20 -30
      vertex -25 20 -29
      vertex 30 20 -30
    endloop
  endfacet
  facet normal 0 1 0
    outer loop
      vertex 25 20 29
      vertex 29 20 25
      vertex 25 20 25
    endloop
  endfacet
  facet normal 0 -1 0
    outer loop
      vertex -30 -20 -30
      vertex -28 -20 -16
      vertex -30 -20 -16
    endloop
  endfacet
  facet normal 0 -1 0
    outer loop
      vertex 30 -20 -30
      vertex -12 -20 -22
      vertex -30 -20 -30
    endloop
  endfacet
  facet normal 0 -1 -0
    outer loop
      vertex -28 -20 -16
      vertex -30 -20 -30
      vertex -12 -20 -22
    endloop
  endfacet
  facet normal 0 -1 0
    outer loop
      vertex -30 -20 30
      vertex -16.5 -20 23
      vertex 30 -20 30
    endloop
  endfacet
  facet normal 0 -1 0
    outer loop
      vertex -30 -20 -4
      vertex -16.5 -20 23
      vertex -30 -20 30
    endloop
  endfacet
  facet normal 0 -1 0
    outer loop
      vertex -16.5 -20 1
      vertex -12 -20 -2
      vertex 16.5 -20 1
    endloop
  endfacet
  facet normal 0 -1 0
    outer loop
      vertex -16.5 -20 23
      vertex -30 -20 -4
      vertex -28 -20 -4
    endloop
  endfacet
  facet normal 0 -1 -0
    outer loop
      vertex -16.5 -20 23
      vertex -28 -20 -4
      vertex -16.5 -20 1
    endloop
  endfacet
  facet normal 0 -1 -0
    outer loop
      vertex -16.5 -20 1
      vertex -28 -20 -4
      vertex -12 -20 -2
    endloop
  endfacet
  facet normal 0 -1 0
    outer loop
      vertex -28 -20 -16
      vertex -12 -20 -2
      vertex -28 -20 -4
    endloop
  endfacet
  facet normal 0 -1 -0
    outer loop
      vertex -12 -20 -2
      vertex -28 -20 -16
      vertex -12 -20 -22
    endloop
  endfacet
  facet normal 0 -1 0
    outer loop
      vertex 16.5 -20 23
      vertex 30 -20 30
      vertex -16.5 -20 23
    endloop
  endfacet
  facet normal 0 -1 0
    outer loop
      vertex 22 -20 -2
      vertex 16.5 -20 23
      vertex 16.5 -20 1
    endloop
  endfacet
  facet normal 0 -1 0
    outer loop
      vertex 22 -20 -2
      vertex 16.5 -20 1
      vertex -12 -20 -2
    endloop
  endfacet
  facet normal 0 -1 0
    outer loop
      vertex 16.5 -20 23
      vertex 22 -20 -2
      vertex 30 -20 30
    endloop
  endfacet
  facet normal 0 -1 0
    outer loop
      vertex 30 -20 -30
      vertex 22 -20 -2
      vertex 22 -20 -22
    endloop
  endfacet
  facet normal 0 -1 0
    outer loop
      vertex 22 -20 -2
      vertex 30 -20 -30
      vertex 30 -20 30
    endloop
  endfacet
  facet normal 0 -1 0
    outer loop
      vertex -12 -20 -22
      vertex 30 -20 -30
      vertex 22 -20 -22
    endloop
  endfacet
  facet normal -1 0 0
    outer loop
      vertex 29 -19 -25
      vertex 29 20 25
      vertex 29 20 -25
    endloop
  endfacet
  facet normal -1 -0 0
    outer loop
      vertex 29 20 25
      vertex 29 -19 -25
      vertex 29 -19 25
    endloop
  endfacet
  facet normal 0 0 -1
    outer loop
      vertex 25 -19 29
      vertex 2.5 0 29
      vertex 25 20 29
    endloop
  endfacet
  facet normal 0 0 -1
    outer loop
      vertex 25 -19 29
      vertex 2.49507 -0.156976 29
      vertex 2.5 0 29
    endloop
  endfacet
  facet normal 0 0 -1
    outer loop
      vertex 25 -19 29
      vertex 2.48029 -0.313333 29
      vertex 2.49507 -0.156976 29
    endloop
  endfacet
  facet normal 0 0 -1
    outer loop
      vertex 25 -19 29
      vertex 2.45572 -0.468452 29
      vertex 2.48029 -0.313333 29
    endloop
  endfacet
  facet normal 0 0 -1
    outer loop
      vertex 25 -19 29
      vertex 2.42146 -0.621724 29
      vertex 2.45572 -0.468452 29
    endloop
  endfacet
  facet normal 0 0 -1
    outer loop
      vertex 25 -19 29
      vertex 2.37764 -0.772542 29
      vertex 2.42146 -0.621724 29
    endloop
  endfacet
  facet normal 0 0 -1
    outer loop
      vertex 25 -19 29
      vertex 2.32444 -0.920311 29
      vertex 2.37764 -0.772542 29
    endloop
  endfacet
  facet normal 0 0 -1
    outer loop
      vertex 25 -19 29
      vertex 2.26207 -1.06445 29
      vertex 2.32444 -0.920311 29
    endloop
  endfacet
  facet normal 0 0 -1
    outer loop
      vertex 25 -19 29
      vertex 2.19077 -1.20438 29
      vertex 2.26207 -1.06445 29
    endloop
  endfacet
  facet normal 0 0 -1
    outer loop
      vertex 25 -19 29
      vertex 2.11082 -1.33957 29
      vertex 2.19077 -1.20438 29
    endloop
  endfacet
  facet normal 0 0 -1
    outer loop
      vertex 25 -19 29
      vertex 2.02254 -1.46946 29
      vertex 2.11082 -1.33957 29
    endloop
  endfacet
  facet normal 0 0 -1
    outer loop
      vertex 25 -19 29
      vertex 1.92628 -1.59356 29
      vertex 2.02254 -1.46946 29
    endloop
  endfacet
  facet normal 0 0 -1
    outer loop
      vertex 25 -19 29
      vertex 1.82242 -1.71137 29
      vertex 1.92628 -1.59356 29
    endloop
  endfacet
  facet normal 0 0 -1
    outer loop
      vertex 25 -19 29
      vertex 1.71137 -1.82242 29
      vertex 1.82242 -1.71137 29
    endloop
  endfacet
  facet normal 0 0 -1
    outer loop
      vertex 25 -19 29
      vertex 1.59356 -1.92628 29
      vertex 1.71137 -1.82242 29
    endloop
  endfacet
  facet normal 0 0 -1
    outer loop
      vertex 25 -19 29
      vertex 1.46946 -2.02254 29
      vertex 1.59356 -1.92628 29
    endloop
  endfacet
  facet normal 0 0 -1
    outer loop
      vertex 25 -19 29
      vertex 1.33957 -2.11082 29
      vertex 1.46946 -2.02254 29
    endloop
  endfacet
  facet normal 0 0 -1
    outer loop
      vertex 25 -19 29
      vertex 1.20438 -2.19077 29
      vertex 1.33957 -2.11082 29
    endloop
  endfacet
  facet normal 0 0 -1
    outer loop
      vertex 25 -19 29
      vertex 1.06445 -2.26207 29
      vertex 1.20438 -2.19077 29
    endloop
  endfacet
  facet normal 0 0 -1
    outer loop
      vertex 25 -19 29
      vertex 0.920311 -2.32444 29
      vertex 1.06445 -2.26207 29
    endloop
  endfacet
  facet normal 0 0 -1
    outer loop
      vertex 25 -19 29
      vertex 0.772542 -2.37764 29
      vertex 0.920311 -2.32444 29
    endloop
  endfacet
  facet normal 0 0 -1
    outer loop
      vertex 25 -19 29
      vertex 0.621724 -2.42146 29
      vertex 0.772542 -2.37764 29
    endloop
  endfacet
  facet normal 0 0 -1
    outer loop
      vertex 25 -19 29
      vertex 0.468452 -2.45572 29
      vertex 0.621724 -2.42146 29
    endloop
  endfacet
  facet normal 0 0 -1
    outer loop
      vertex 25 -19 29
      vertex 0.313333 -2.48029 29
      vertex 0.468452 -2.45572 29
    endloop
  endfacet
  facet normal 0 0 -1
    outer loop
      vertex 25 -19 29
      vertex 0.156976 -2.49507 29
      vertex 0.313333 -2.48029 29
    endloop
  endfacet
  facet normal 0 0 -1
    outer loop
      vertex 25 -19 29
      vertex 0 -2.5 29
      vertex 0.156976 -2.49507 29
    endloop
  endfacet
  facet normal 0 0 -1
    outer loop
      vertex -25 -19 29
      vertex 0 -2.5 29
      vertex 25 -19 29
    endloop
  endfacet
  facet normal -0 0 -1
    outer loop
      vertex 0 -2.5 29
      vertex -25 -19 29
      vertex -0.156976 -2.49507 29
    endloop
  endfacet
  facet normal -0 0 -1
    outer loop
      vertex -0.156976 -2.49507 29
      vertex -25 -19 29
      vertex -0.313333 -2.48029 29
    endloop
  endfacet
  facet normal -0 0 -1
    outer loop
      vertex -0.313333 -2.48029 29
      vertex -25 -19 29
      vertex -0.468452 -2.45572 29
    endloop
  endfacet
  facet normal -0 0 -1
    outer loop
      vertex -0.468452 -2.45572 29
      vertex -25 -19 29
      vertex -0.621724 -2.42146 29
    endloop
  endfacet
  facet normal -0 0 -1
    outer loop
      vertex -0.621724 -2.42146 29
      vertex -25 -19 29
      vertex -0.772542 -2.37764 29
    endloop
  endfacet
  facet normal -0 0 -1
    outer loop
      vertex -0.772542 -2.37764 29
      vertex -25 -19 29
      vertex -0.920311 -2.32444 29
    endloop
  endfacet
  facet normal -0 0 -1
    outer loop
      vertex -0.920311 -2.32444 29
      vertex -25 -19 29
      vertex -1.06445 -2.26207 29
    endloop
  endfacet
  facet normal -0 0 -1
    outer loop
      vertex -1.06445 -2.26207 29
      vertex -25 -19 29
      vertex -1.20438 -2.19077 29
    endloop
  endfacet
  facet normal -0 0 -1
    outer loop
      vertex -2.49507 -0.156976 29
      vertex -25 -19 29
      vertex -2.5 0 29
    endloop
  endfacet
  facet normal -0 0 -1
    outer loop
      vertex -2.48029 -0.313333 29
      vertex -25 -19 29
      vertex -2.49507 -0.156976 29
    endloop
  endfacet
  facet normal -0 0 -1
    outer loop
      vertex -2.45572 -0.468452 29
      vertex -25 -19 29
      vertex -2.48029 -0.313333 29
    endloop
  endfacet
  facet normal -0 0 -1
    outer loop
      vertex -2.42146 -0.621724 29
      vertex -25 -19 29
      vertex -2.45572 -0.468452 29
    endloop
  endfacet
  facet normal -0 0 -1
    outer loop
      vertex -2.37764 -0.772542 29
      vertex -25 -19 29
      vertex -2.42146 -0.621724 29
    endloop
  endfacet
  facet normal -0 0 -1
    outer loop
      vertex -2.32444 -0.920311 29
      vertex -25 -19 29
      vertex -2.37764 -0.772542 29
    endloop
  endfacet
  facet normal -0 0 -1
    outer loop
      vertex -2.26207 -1.06445 29
      vertex -25 -19 29
      vertex -2.32444 -0.920311 29
    endloop
  endfacet
  facet normal -0 0 -1
    outer loop
      vertex -2.19077 -1.20438 29
      vertex -25 -19 29
      vertex -2.26207 -1.06445 29
    endloop
  endfacet
  facet normal -0 0 -1
    outer loop
      vertex -2.11082 -1.33957 29
      vertex -25 -19 29
      vertex -2.19077 -1.20438 29
    endloop
  endfacet
  facet normal -0 0 -1
    outer loop
      vertex -2.02254 -1.46946 29
      vertex -25 -19 29
      vertex -2.11082 -1.33957 29
    endloop
  endfacet
  facet normal -0 0 -1
    outer loop
      vertex -1.92628 -1.59356 29
      vertex -25 -19 29
      vertex -2.02254 -1.46946 29
    endloop
  endfacet
  facet normal -0 0 -1
    outer loop
      vertex -1.82242 -1.71137 29
      vertex -25 -19 29
      vertex -1.92628 -1.59356 29
    endloop
  endfacet
  facet normal -0 0 -1
    outer loop
      vertex -1.71137 -1.82242 29
      vertex -25 -19 29
      vertex -1.82242 -1.71137 29
    endloop
  endfacet
  facet normal -0 0 -1
    outer loop
      vertex -1.59356 -1.92628 29
      vertex -25 -19 29
      vertex -1.71137 -1.82242 29
    endloop
  endfacet
  facet normal -0 0 -1
    outer loop
      vertex -1.46946 -2.02254 29
      vertex -25 -19 29
      vertex -1.59356 -1.92628 29
    endloop
  endfacet
  facet normal -0 0 -1
    outer loop
      vertex -1.33957 -2.11082 29
      vertex -25 -19 29
      vertex -1.46946 -2.02254 29
    endloop
  endfacet
  facet normal -0 0 -1
    outer loop
      vertex -1.20438 -2.19077 29
      vertex -25 -19 29
      vertex -1.33957 -2.11082 29
    endloop
  endfacet
  facet normal 0 0 -1
    outer loop
      vertex 2.49507 0.156976 29
      vertex 25 20 29
      vertex 2.5 0 29
    endloop
  endfacet
  facet normal 0 0 -1
    outer loop
      vertex 2.48029 0.313333 29
      vertex 25 20 29
      vertex 2.49507 0.156976 29
    endloop
  endfacet
  facet normal 0 0 -1
    outer loop
      vertex 2.45572 0.468452 29
      vertex 25 20 29
      vertex 2.48029 0.313333 29
    endloop
  endfacet
  facet normal 0 0 -1
    outer loop
      vertex 2.42146 0.621724 29
      vertex 25 20 29
      vertex 2.45572 0.468452 29
    endloop
  endfacet
  facet normal 0 0 -1
    outer loop
      vertex 2.37764 0.772542 29
      vertex 25 20 29
      vertex 2.42146 0.621724 29
    endloop
  endfacet
  facet normal 0 0 -1
    outer loop
      vertex 2.32444 0.920311 29
      vertex 25 20 29
      vertex 2.37764 0.772542 29
    endloop
  endfacet
  facet normal 0 0 -1
    outer loop
      vertex 2.26207 1.06445 29
      vertex 25 20 29
      vertex 2.32444 0.920311 29
    endloop
  endfacet
  facet normal 0 0 -1
    outer loop
      vertex 2.19077 1.20438 29
      vertex 25 20 29
      vertex 2.26207 1.06445 29
    endloop
  endfacet
  facet normal 0 0 -1
    outer loop
      vertex 2.11082 1.33957 29
      vertex 25 20 29
      vertex 2.19077 1.20438 29
    endloop
  endfacet
  facet normal 0 0 -1
    outer loop
      vertex 2.02254 1.46946 29
      vertex 25 20 29
      vertex 2.11082 1.33957 29
    endloop
  endfacet
  facet normal 0 0 -1
    outer loop
      vertex 1.92628 1.59356 29
      vertex 25 20 29
      vertex 2.02254 1.46946 29
    endloop
  endfacet
  facet normal 0 0 -1
    outer loop
      vertex 1.82242 1.71137 29
      vertex 25 20 29
      vertex 1.92628 1.59356 29
    endloop
  endfacet
  facet normal 0 0 -1
    outer loop
      vertex 1.71137 1.82242 29
      vertex 25 20 29
      vertex 1.82242 1.71137 29
    endloop
  endfacet
  facet normal 0 0 -1
    outer loop
      vertex 1.59356 1.92628 29
      vertex 25 20 29
      vertex 1.71137 1.82242 29
    endloop
  endfacet
  facet normal 0 0 -1
    outer loop
      vertex 1.46946 2.02254 29
      vertex 25 20 29
      vertex 1.59356 1.92628 29
    endloop
  endfacet
  facet normal 0 0 -1
    outer loop
      vertex 1.33957 2.11082 29
      vertex 25 20 29
      vertex 1.46946 2.02254 29
    endloop
  endfacet
  facet normal 0 0 -1
    outer loop
      vertex 1.20438 2.19077 29
      vertex 25 20 29
      vertex 1.33957 2.11082 29
    endloop
  endfacet
  facet normal 0 0 -1
    outer loop
      vertex 1.06445 2.26207 29
      vertex 25 20 29
      vertex 1.20438 2.19077 29
    endloop
  endfacet
  facet normal 0 0 -1
    outer loop
      vertex 0.920311 2.32444 29
      vertex 25 20 29
      vertex 1.06445 2.26207 29
    endloop
  endfacet
  facet normal 0 0 -1
    outer loop
      vertex 0.772542 2.37764 29
      vertex 25 20 29
      vertex 0.920311 2.32444 29
    endloop
  endfacet
  facet normal 0 0 -1
    outer loop
      vertex 0.621724 2.42146 29
      vertex 25 20 29
      vertex 0.772542 2.37764 29
    endloop
  endfacet
  facet normal 0 0 -1
    outer loop
      vertex 0.468452 2.45572 29
      vertex 25 20 29
      vertex 0.621724 2.42146 29
    endloop
  endfacet
  facet normal 0 0 -1
    outer loop
      vertex 0.313333 2.48029 29
      vertex 25 20 29
      vertex 0.468452 2.45572 29
    endloop
  endfacet
  facet normal 0 0 -1
    outer loop
      vertex 0.156976 2.49507 29
      vertex 25 20 29
      vertex 0.313333 2.48029 29
    endloop
  endfacet
  facet normal 0 0 -1
    outer loop
      vertex 0 2.5 29
      vertex 25 20 29
      vertex 0.156976 2.49507 29
    endloop
  endfacet
  facet normal 0 0 -1
    outer loop
      vertex -25 20 29
      vertex 0 2.5 29
      vertex -0.156976 2.49507 29
    endloop
  endfacet
  facet normal 0 0 -1
    outer loop
      vertex -25 20 29
      vertex -0.156976 2.49507 29
      vertex -0.313333 2.48029 29
    endloop
  endfacet
  facet normal 0 0 -1
    outer loop
      vertex -25 20 29
      vertex -0.313333 2.48029 29
      vertex -0.468452 2.45572 29
    endloop
  endfacet
  facet normal 0 0 -1
    outer loop
      vertex -25 20 29
      vertex -0.468452 2.45572 29
      vertex -0.621724 2.42146 29
    endloop
  endfacet
  facet normal 0 0 -1
    outer loop
      vertex -25 20 29
      vertex -0.621724 2.42146 29
      vertex -0.772542 2.37764 29
    endloop
  endfacet
  facet normal 0 0 -1
    outer loop
      vertex -25 20 29
      vertex -0.772542 2.37764 29
      vertex -0.920311 2.32444 29
    endloop
  endfacet
  facet normal 0 0 -1
    outer loop
      vertex -25 20 29
      vertex -0.920311 2.32444 29
      vertex -1.06445 2.26207 29
    endloop
  endfacet
  facet normal 0 0 -1
    outer loop
      vertex -25 20 29
      vertex -1.06445 2.26207 29
      vertex -1.20438 2.19077 29
    endloop
  endfacet
  facet normal 0 0 -1
    outer loop
      vertex -25 20 29
      vertex -1.20438 2.19077 29
      vertex -1.33957 2.11082 29
    endloop
  endfacet
  facet normal 0 0 -1
    outer loop
      vertex -25 20 29
      vertex -2.5 0 29
      vertex -25 -19 29
    endloop
  endfacet
  facet normal 0 0 -1
    outer loop
      vertex -2.5 0 29
      vertex -25 20 29
      vertex -2.49507 0.156976 29
    endloop
  endfacet
  facet normal 0 0 -1
    outer loop
      vertex -2.49507 0.156976 29
      vertex -25 20 29
      vertex -2.48029 0.313333 29
    endloop
  endfacet
  facet normal 0 0 -1
    outer loop
      vertex -2.48029 0.313333 29
      vertex -25 20 29
      vertex -2.45572 0.468452 29
    endloop
  endfacet
  facet normal 0 0 -1
    outer loop
      vertex -2.45572 0.468452 29
      vertex -25 20 29
      vertex -2.42146 0.621724 29
    endloop
  endfacet
  facet normal 0 0 -1
    outer loop
      vertex -2.42146 0.621724 29
      vertex -25 20 29
      vertex -2.37764 0.772542 29
    endloop
  endfacet
  facet normal 0 0 -1
    outer loop
      vertex -2.37764 0.772542 29
      vertex -25 20 29
      vertex -2.32444 0.920311 29
    endloop
  endfacet
  facet normal 0 0 -1
    outer loop
      vertex -2.32444 0.920311 29
      vertex -25 20 29
      vertex -2.26207 1.06445 29
    endloop
  endfacet
  facet normal 0 0 -1
    outer loop
      vertex -2.26207 1.06445 29
      vertex -25 20 29
      vertex -2.19077 1.20438 29
    endloop
  endfacet
  facet normal 0 0 -1
    outer loop
      vertex -2.19077 1.20438 29
      vertex -25 20 29
      vertex -2.11082 1.33957 29
    endloop
  endfacet
  facet normal 0 0 -1
    outer loop
      vertex -2.11082 1.33957 29
      vertex -25 20 29
      vertex -2.02254 1.46946 29
    endloop
  endfacet
  facet normal 0 0 -1
    outer loop
      vertex -2.02254 1.46946 29
      vertex -25 20 29
      vertex -1.92628 1.59356 29
    endloop
  endfacet
  facet normal 0 0 -1
    outer loop
      vertex -1.92628 1.59356 29
      vertex -25 20 29
      vertex -1.82242 1.71137 29
    endloop
  endfacet
  facet normal 0 0 -1
    outer loop
      vertex 0 2.5 29
      vertex -25 20 29
      vertex 25 20 29
    endloop
  endfacet
  facet normal 0 0 -1
    outer loop
      vertex -1.46946 2.02254 29
      vertex -25 20 29
      vertex -1.33957 2.11082 29
    endloop
  endfacet
  facet normal 0 0 -1
    outer loop
      vertex -1.59356 1.92628 29
      vertex -25 20 29
      vertex -1.46946 2.02254 29
    endloop
  endfacet
  facet normal 0 0 -1
    outer loop
      vertex -1.71137 1.82242 29
      vertex -25 20 29
      vertex -1.59356 1.92628 29
    endloop
  endfacet
  facet normal 0 0 -1
    outer loop
      vertex -1.82242 1.71137 29
      vertex -25 20 29
      vertex -1.71137 1.82242 29
    endloop
  endfacet
  facet normal -0 0 1
    outer loop
      vertex -25 20 -29
      vertex 25 -19 -29
      vertex 25 20 -29
    endloop
  endfacet
  facet normal 0 0 1
    outer loop
      vertex 25 -19 -29
      vertex -25 20 -29
      vertex -25 -19 -29
    endloop
  endfacet
  facet normal 1 0 0
    outer loop
      vertex -29 20 25
      vertex -29 -11 -4
      vertex -29 20 -25
    endloop
  endfacet
  facet normal 1 -0 0
    outer loop
      vertex -29 -19 25
      vertex -29 -11 -4
      vertex -29 20 25
    endloop
  endfacet
  facet normal 1 0 0
    outer loop
      vertex -29 -11 -4
      vertex -29 -19 25
      vertex -29 -19 -4
    endloop
  endfacet
  facet normal 1 -0 0
    outer loop
      vertex -29 -11 -16
      vertex -29 20 -25
      vertex -29 -11 -4
    endloop
  endfacet
  facet normal 1 0 0
    outer loop
      vertex -29 -19 -25
      vertex -29 -11 -16
      vertex -29 -19 -16
    endloop
  endfacet
  facet normal 1 0 0
    outer loop
      vertex -29 -11 -16
      vertex -29 -19 -25
      vertex -29 20 -25
    endloop
  endfacet
  facet normal 0 1 0
    outer loop
      vertex -25 -19 -29
      vertex -12 -19 -22
      vertex 25 -19 -29
    endloop
  endfacet
  facet normal 0 1 0
    outer loop
      vertex -12 -19 -22
      vertex -25 -19 -29
      vertex -25 -19 -25
    endloop
  endfacet
  facet normal 0 1 0
    outer loop
      vertex -12 -19 -2
      vertex -28 -19 -16
      vertex -28 -19 -4
    endloop
  endfacet
  facet normal 0 1 -0
    outer loop
      vertex -12 -19 -22
      vertex -28 -19 -16
      vertex -12 -19 -2
    endloop
  endfacet
  facet normal 0 1 -0
    outer loop
      vertex -25 -19 -25
      vertex -28 -19 -16
      vertex -12 -19 -22
    endloop
  endfacet
  facet normal 0 1 -0
    outer loop
      vertex 25 -19 -29
      vertex 22 -19 -22
      vertex 25 -19 -25
    endloop
  endfacet
  facet normal 0 1 0
    outer loop
      vertex 22 -19 -22
      vertex 25 -19 -29
      vertex -12 -19 -22
    endloop
  endfacet
  facet normal 0 1 0
    outer loop
      vertex -29 -19 -25
      vertex -28 -19 -16
      vertex -25 -19 -25
    endloop
  endfacet
  facet normal 0 1 0
    outer loop
      vertex -28 -19 -16
      vertex -29 -19 -25
      vertex -29 -19 -16
    endloop
  endfacet
  facet normal 0 1 0
    outer loop
      vertex 22 -19 -2
      vertex 25 -19 25
      vertex 29 -19 25
    endloop
  endfacet
  facet normal 0 1 0
    outer loop
      vertex 25 -19 25
      vertex 16.5 -19 23
      vertex -25 -19 25
    endloop
  endfacet
  facet normal 0 1 -0
    outer loop
      vertex -16.5 -19 23
      vertex -25 -19 25
      vertex 16.5 -19 23
    endloop
  endfacet
  facet normal 0 1 0
    outer loop
      vertex 25 -19 25
      vertex 16.5 -19 1
      vertex 16.5 -19 23
    endloop
  endfacet
  facet normal 0 1 0
    outer loop
      vertex -12 -19 -2
      vertex 16.5 -19 1
      vertex 22 -19 -2
    endloop
  endfacet
  facet normal 0 1 0
    outer loop
      vertex 25 -19 25
      vertex 22 -19 -2
      vertex 16.5 -19 1
    endloop
  endfacet
  facet normal 0 1 -0
    outer loop
      vertex 29 -19 -25
      vertex 22 -19 -2
      vertex 29 -19 25
    endloop
  endfacet
  facet normal 0 1 -0
    outer loop
      vertex 25 -19 -25
      vertex 22 -19 -22
      vertex 29 -19 -25
    endloop
  endfacet
  facet normal 0 1 0
    outer loop
      vertex 22 -19 -2
      vertex 29 -19 -25
      vertex 22 -19 -22
    endloop
  endfacet
  facet normal 0 1 -0
    outer loop
      vertex 25 -19 25
      vertex -25 -19 29
      vertex 25 -19 29
    endloop
  endfacet
  facet normal 0 1 0
    outer loop
      vertex -25 -19 29
      vertex 25 -19 25
      vertex -25 -19 25
    endloop
  endfacet
  facet normal 0 1 -0
    outer loop
      vertex -16.5 -19 1
      vertex -25 -19 25
      vertex -16.5 -19 23
    endloop
  endfacet
  facet normal 0 1 0
    outer loop
      vertex -25 -19 25
      vertex -16.5 -19 1
      vertex -29 -19 25
    endloop
  endfacet
  facet normal 0 1 0
    outer loop
      vertex 16.5 -19 1
      vertex -12 -19 -2
      vertex -16.5 -19 1
    endloop
  endfacet
  facet normal 0 1 0
    outer loop
      vertex -28 -19 -4
      vertex -16.5 -19 1
      vertex -12 -19 -2
    endloop
  endfacet
  facet normal 0 1 -0
    outer loop
      vertex -28 -19 -4
      vertex -29 -19 25
      vertex -16.5 -19 1
    endloop
  endfacet
  facet normal 0 1 0
    outer loop
      vertex -29 -19 25
      vertex -28 -19 -4
      vertex -29 -19 -4
    endloop
  endfacet
  facet normal -1 0 0
    outer loop
      vertex 22 -20 -22
      vertex 22 -19 -2
      vertex 22 -19 -22
    endloop
  endfacet
  facet normal -1 -0 0
    outer loop
      vertex 22 -19 -2
      vertex 22 -20 -22
      vertex 22 -20 -2
    endloop
  endfacet
  facet normal 0 0 -1
    outer loop
      vertex -12 -20 -2
      vertex 22 -19 -2
      vertex 22 -20 -2
    endloop
  endfacet
  facet normal -0 0 -1
    outer loop
      vertex 22 -19 -2
      vertex -12 -20 -2
      vertex -12 -19 -2
    endloop
  endfacet
  facet normal -0 0 1
    outer loop
      vertex -12 -19 -22
      vertex 22 -20 -22
      vertex 22 -19 -22
    endloop
  endfacet
  facet normal 0 0 1
    outer loop
      vertex 22 -20 -22
      vertex -12 -19 -22
      vertex -12 -20 -22
    endloop
  endfacet
  facet normal 1 -0 0
    outer loop
      vertex -12 -20 -2
      vertex -12 -19 -22
      vertex -12 -19 -2
    endloop
  endfacet
  facet normal 1 0 0
    outer loop
      vertex -12 -19 -22
      vertex -12 -20 -2
      vertex -12 -20 -22
    endloop
  endfacet
  facet normal -1 0 0
    outer loop
      vertex 16.5 -20 1
      vertex 16.5 -19 23
      vertex 16.5 -19 1
    endloop
  endfacet
  facet normal -1 -0 0
    outer loop
      vertex 16.5 -19 23
      vertex 16.5 -20 1
      vertex 16.5 -20 23
    endloop
  endfacet
  facet normal 0 0 -1
    outer loop
      vertex -16.5 -20 23
      vertex 16.5 -19 23
      vertex 16.5 -20 23
    endloop
  endfacet
  facet normal -0 0 -1
    outer loop
      vertex 16.5 -19 23
      vertex -16.5 -20 23
      vertex -16.5 -19 23
    endloop
  endfacet
  facet normal -0 0 1
    outer loop
      vertex -16.5 -19 1
      vertex 16.5 -20 1
      vertex 16.5 -19 1
    endloop
  endfacet
  facet normal 0 0 1
    outer loop
      vertex 16.5 -20 1
      vertex -16.5 -19 1
      vertex -16.5 -20 1
    endloop
  endfacet
  facet normal 1 -0 0
    outer loop
      vertex -16.5 -20 23
      vertex -16.5 -19 1
      vertex -16.5 -19 23
    endloop
  endfacet
  facet normal 1 0 0
    outer loop
      vertex -16.5 -19 1
      vertex -16.5 -20 23
      vertex -16.5 -20 1
    endloop
  endfacet
  facet normal -1 0 0
    outer loop
      vertex -28 -20 -16
      vertex -28 -19 -4
      vertex -28 -19 -16
    endloop
  endfacet
  facet normal -1 -0 0
    outer loop
      vertex -28 -19 -4
      vertex -28 -20 -16
      vertex -28 -20 -4
    endloop
  endfacet
  facet normal 0 -1 0
    outer loop
      vertex -30 -11 -16
      vertex -29 -11 -4
      vertex -30 -11 -4
    endloop
  endfacet
  facet normal 0 -1 -0
    outer loop
      vertex -29 -11 -4
      vertex -30 -11 -16
      vertex -29 -11 -16
    endloop
  endfacet
  facet normal 0 0 1
    outer loop
      vertex -29 -11 -16
      vertex -30 -11 -16
      vertex -29 -19 -16
    endloop
  endfacet
  facet normal -0 0 1
    outer loop
      vertex -29 -19 -16
      vertex -28 -20 -16
      vertex -28 -19 -16
    endloop
  endfacet
  facet normal 0 0 1
    outer loop
      vertex -29 -19 -16
      vertex -30 -20 -16
      vertex -28 -20 -16
    endloop
  endfacet
  facet normal 0 0 1
    outer loop
      vertex -30 -20 -16
      vertex -29 -19 -16
      vertex -30 -11 -16
    endloop
  endfacet
  facet normal 0 0 -1
    outer loop
      vertex -28 -20 -4
      vertex -29 -19 -4
      vertex -28 -19 -4
    endloop
  endfacet
  facet normal 0 0 -1
    outer loop
      vertex -30 -20 -4
      vertex -29 -19 -4
      vertex -28 -20 -4
    endloop
  endfacet
  facet normal 0 0 -1
    outer loop
      vertex -30 -11 -4
      vertex -29 -19 -4
      vertex -30 -20 -4
    endloop
  endfacet
  facet normal 0 0 -1
    outer loop
      vertex -29 -19 -4
      vertex -30 -11 -4
      vertex -29 -11 -4
    endloop
  endfacet
  facet normal 0.82706 0.562113 0
    outer loop
      vertex -2.02254 -1.46946 30
      vertex -2.11082 -1.33957 29
      vertex -2.11082 -1.33957 30
    endloop
  endfacet
  facet normal 0.82706 0.562113 0
    outer loop
      vertex -2.11082 -1.33957 29
      vertex -2.02254 -1.46946 30
      vertex -2.02254 -1.46946 29
    endloop
  endfacet
  facet normal 0.750122 0.661299 0
    outer loop
      vertex -1.82242 -1.71137 30
      vertex -1.92628 -1.59356 29
      vertex -1.92628 -1.59356 30
    endloop
  endfacet
  facet normal 0.750122 0.661299 0
    outer loop
      vertex -1.92628 -1.59356 29
      vertex -1.82242 -1.71137 30
      vertex -1.82242 -1.71137 29
    endloop
  endfacet
  facet normal 0.995562 -0.0941078 0
    outer loop
      vertex -2.49507 0.156976 30
      vertex -2.48029 0.313333 29
      vertex -2.48029 0.313333 30
    endloop
  endfacet
  facet normal 0.995562 -0.0941078 0
    outer loop
      vertex -2.48029 0.313333 29
      vertex -2.49507 0.156976 30
      vertex -2.49507 0.156976 29
    endloop
  endfacet
  facet normal 0.940881 0.338737 0
    outer loop
      vertex -2.32444 -0.920311 30
      vertex -2.37764 -0.772542 29
      vertex -2.37764 -0.772542 30
    endloop
  endfacet
  facet normal 0.940881 0.338737 0
    outer loop
      vertex -2.37764 -0.772542 29
      vertex -2.32444 -0.920311 30
      vertex -2.32444 -0.920311 29
    endloop
  endfacet
  facet normal 0.0313906 -0.999507 0
    outer loop
      vertex -0.156976 2.49507 29
      vertex 0 2.5 30
      vertex -0.156976 2.49507 30
    endloop
  endfacet
  facet normal 0.0313906 -0.999507 0
    outer loop
      vertex 0 2.5 30
      vertex -0.156976 2.49507 29
      vertex 0 2.5 29
    endloop
  endfacet
  facet normal -0.750122 -0.661299 0
    outer loop
      vertex 1.92628 1.59356 29
      vertex 1.82242 1.71137 30
      vertex 1.82242 1.71137 29
    endloop
  endfacet
  facet normal -0.750122 -0.661299 0
    outer loop
      vertex 1.82242 1.71137 30
      vertex 1.92628 1.59356 29
      vertex 1.92628 1.59356 30
    endloop
  endfacet
  facet normal -0.987687 -0.156444 0
    outer loop
      vertex 2.48029 0.313333 29
      vertex 2.45572 0.468452 30
      vertex 2.45572 0.468452 29
    endloop
  endfacet
  facet normal -0.987687 -0.156444 0
    outer loop
      vertex 2.45572 0.468452 30
      vertex 2.48029 0.313333 29
      vertex 2.48029 0.313333 30
    endloop
  endfacet
  facet normal 0.454001 -0.891001 0
    outer loop
      vertex -1.20438 2.19077 29
      vertex -1.06445 2.26207 30
      vertex -1.20438 2.19077 30
    endloop
  endfacet
  facet normal 0.454001 -0.891001 0
    outer loop
      vertex -1.06445 2.26207 30
      vertex -1.20438 2.19077 29
      vertex -1.06445 2.26207 29
    endloop
  endfacet
  facet normal 0.279011 -0.960288 0
    outer loop
      vertex -0.772542 2.37764 29
      vertex -0.621724 2.42146 30
      vertex -0.772542 2.37764 30
    endloop
  endfacet
  facet normal 0.279011 -0.960288 0
    outer loop
      vertex -0.621724 2.42146 30
      vertex -0.772542 2.37764 29
      vertex -0.621724 2.42146 29
    endloop
  endfacet
  facet normal 0.509036 -0.860745 0
    outer loop
      vertex -1.33957 2.11082 29
      vertex -1.20438 2.19077 30
      vertex -1.33957 2.11082 30
    endloop
  endfacet
  facet normal 0.509036 -0.860745 0
    outer loop
      vertex -1.20438 2.19077 30
      vertex -1.33957 2.11082 29
      vertex -1.20438 2.19077 29
    endloop
  endfacet
  facet normal 0.0941078 0.995562 -0
    outer loop
      vertex -0.156976 -2.49507 29
      vertex -0.313333 -2.48029 30
      vertex -0.156976 -2.49507 30
    endloop
  endfacet
  facet normal 0.0941078 0.995562 0
    outer loop
      vertex -0.313333 -2.48029 30
      vertex -0.156976 -2.49507 29
      vertex -0.313333 -2.48029 29
    endloop
  endfacet
  facet normal -0.940881 -0.338737 0
    outer loop
      vertex 2.37764 0.772542 29
      vertex 2.32444 0.920311 30
      vertex 2.32444 0.920311 29
    endloop
  endfacet
  facet normal -0.940881 -0.338737 0
    outer loop
      vertex 2.32444 0.920311 30
      vertex 2.37764 0.772542 29
      vertex 2.37764 0.772542 30
    endloop
  endfacet
  facet normal 0.6129 0.790161 -0
    outer loop
      vertex -1.46946 -2.02254 29
      vertex -1.59356 -1.92628 30
      vertex -1.46946 -2.02254 30
    endloop
  endfacet
  facet normal 0.6129 0.790161 0
    outer loop
      vertex -1.59356 -1.92628 30
      vertex -1.46946 -2.02254 29
      vertex -1.59356 -1.92628 29
    endloop
  endfacet
  facet normal 0.562113 0.82706 -0
    outer loop
      vertex -1.33957 -2.11082 29
      vertex -1.46946 -2.02254 30
      vertex -1.33957 -2.11082 30
    endloop
  endfacet
  facet normal 0.562113 0.82706 0
    outer loop
      vertex -1.46946 -2.02254 30
      vertex -1.33957 -2.11082 29
      vertex -1.46946 -2.02254 29
    endloop
  endfacet
  facet normal -0.891001 0.454001 0
    outer loop
      vertex 2.19077 -1.20438 29
      vertex 2.26207 -1.06445 30
      vertex 2.26207 -1.06445 29
    endloop
  endfacet
  facet normal -0.891001 0.454001 0
    outer loop
      vertex 2.26207 -1.06445 30
      vertex 2.19077 -1.20438 29
      vertex 2.19077 -1.20438 30
    endloop
  endfacet
  facet normal 0.860745 0.509036 0
    outer loop
      vertex -2.11082 -1.33957 30
      vertex -2.19077 -1.20438 29
      vertex -2.19077 -1.20438 30
    endloop
  endfacet
  facet normal 0.860745 0.509036 0
    outer loop
      vertex -2.19077 -1.20438 29
      vertex -2.11082 -1.33957 30
      vertex -2.11082 -1.33957 29
    endloop
  endfacet
  facet normal -0.960288 -0.279011 0
    outer loop
      vertex 2.42146 0.621724 29
      vertex 2.37764 0.772542 30
      vertex 2.37764 0.772542 29
    endloop
  endfacet
  facet normal -0.960288 -0.279011 0
    outer loop
      vertex 2.37764 0.772542 30
      vertex 2.42146 0.621724 29
      vertex 2.42146 0.621724 30
    endloop
  endfacet
  facet normal 0.987687 -0.156444 0
    outer loop
      vertex -2.48029 0.313333 30
      vertex -2.45572 0.468452 29
      vertex -2.45572 0.468452 30
    endloop
  endfacet
  facet normal 0.987687 -0.156444 0
    outer loop
      vertex -2.45572 0.468452 29
      vertex -2.48029 0.313333 30
      vertex -2.48029 0.313333 29
    endloop
  endfacet
  facet normal 0.218141 0.975917 -0
    outer loop
      vertex -0.468452 -2.45572 29
      vertex -0.621724 -2.42146 30
      vertex -0.468452 -2.45572 30
    endloop
  endfacet
  facet normal 0.218141 0.975917 0
    outer loop
      vertex -0.621724 -2.42146 30
      vertex -0.468452 -2.45572 29
      vertex -0.621724 -2.42146 29
    endloop
  endfacet
  facet normal -0.975917 -0.218141 0
    outer loop
      vertex 2.45572 0.468452 29
      vertex 2.42146 0.621724 30
      vertex 2.42146 0.621724 29
    endloop
  endfacet
  facet normal -0.975917 -0.218141 0
    outer loop
      vertex 2.42146 0.621724 30
      vertex 2.45572 0.468452 29
      vertex 2.45572 0.468452 30
    endloop
  endfacet
  facet normal 0.338737 0.940881 -0
    outer loop
      vertex -0.772542 -2.37764 29
      vertex -0.920311 -2.32444 30
      vertex -0.772542 -2.37764 30
    endloop
  endfacet
  facet normal 0.338737 0.940881 0
    outer loop
      vertex -0.920311 -2.32444 30
      vertex -0.772542 -2.37764 29
      vertex -0.920311 -2.32444 29
    endloop
  endfacet
  facet normal -0.987687 0.156444 0
    outer loop
      vertex 2.45572 -0.468452 29
      vertex 2.48029 -0.313333 30
      vertex 2.48029 -0.313333 29
    endloop
  endfacet
  facet normal -0.987687 0.156444 0
    outer loop
      vertex 2.48029 -0.313333 30
      vertex 2.45572 -0.468452 29
      vertex 2.45572 -0.468452 30
    endloop
  endfacet
  facet normal -0.156444 -0.987687 0
    outer loop
      vertex 0.313333 2.48029 29
      vertex 0.468452 2.45572 30
      vertex 0.313333 2.48029 30
    endloop
  endfacet
  facet normal -0.156444 -0.987687 -0
    outer loop
      vertex 0.468452 2.45572 30
      vertex 0.313333 2.48029 29
      vertex 0.468452 2.45572 29
    endloop
  endfacet
  facet normal 0.999507 0.0313906 0
    outer loop
      vertex -2.49507 -0.156976 30
      vertex -2.5 0 29
      vertex -2.5 0 30
    endloop
  endfacet
  facet normal 0.999507 0.0313906 0
    outer loop
      vertex -2.5 0 29
      vertex -2.49507 -0.156976 30
      vertex -2.49507 -0.156976 29
    endloop
  endfacet
  facet normal -0.995562 0.0941078 0
    outer loop
      vertex 2.48029 -0.313333 29
      vertex 2.49507 -0.156976 30
      vertex 2.49507 -0.156976 29
    endloop
  endfacet
  facet normal -0.995562 0.0941078 0
    outer loop
      vertex 2.49507 -0.156976 30
      vertex 2.48029 -0.313333 29
      vertex 2.48029 -0.313333 30
    endloop
  endfacet
  facet normal -0.454001 -0.891001 0
    outer loop
      vertex 1.06445 2.26207 29
      vertex 1.20438 2.19077 30
      vertex 1.06445 2.26207 30
    endloop
  endfacet
  facet normal -0.454001 -0.891001 -0
    outer loop
      vertex 1.20438 2.19077 30
      vertex 1.06445 2.26207 29
      vertex 1.20438 2.19077 29
    endloop
  endfacet
  facet normal 0.750122 -0.661299 0
    outer loop
      vertex -1.92628 1.59356 30
      vertex -1.82242 1.71137 29
      vertex -1.82242 1.71137 30
    endloop
  endfacet
  facet normal 0.750122 -0.661299 0
    outer loop
      vertex -1.82242 1.71137 29
      vertex -1.92628 1.59356 30
      vertex -1.92628 1.59356 29
    endloop
  endfacet
  facet normal -0.0941078 0.995562 0
    outer loop
      vertex 0.313333 -2.48029 29
      vertex 0.156976 -2.49507 30
      vertex 0.313333 -2.48029 30
    endloop
  endfacet
  facet normal -0.0941078 0.995562 0
    outer loop
      vertex 0.156976 -2.49507 30
      vertex 0.313333 -2.48029 29
      vertex 0.156976 -2.49507 29
    endloop
  endfacet
  facet normal -0.999507 0.0313906 0
    outer loop
      vertex 2.49507 -0.156976 29
      vertex 2.5 0 30
      vertex 2.5 0 29
    endloop
  endfacet
  facet normal -0.999507 0.0313906 0
    outer loop
      vertex 2.5 0 30
      vertex 2.49507 -0.156976 29
      vertex 2.49507 -0.156976 30
    endloop
  endfacet
  facet normal -0.999507 -0.0313906 0
    outer loop
      vertex 2.5 0 29
      vertex 2.49507 0.156976 30
      vertex 2.49507 0.156976 29
    endloop
  endfacet
  facet normal -0.999507 -0.0313906 0
    outer loop
      vertex 2.49507 0.156976 30
      vertex 2.5 0 29
      vertex 2.5 0 30
    endloop
  endfacet
  facet normal 0.707107 0.707107 0
    outer loop
      vertex -1.71137 -1.82242 30
      vertex -1.82242 -1.71137 29
      vertex -1.82242 -1.71137 30
    endloop
  endfacet
  facet normal 0.707107 0.707107 0
    outer loop
      vertex -1.82242 -1.71137 29
      vertex -1.71137 -1.82242 30
      vertex -1.71137 -1.82242 29
    endloop
  endfacet
  facet normal 0.707107 -0.707107 0
    outer loop
      vertex -1.82242 1.71137 30
      vertex -1.71137 1.82242 29
      vertex -1.71137 1.82242 30
    endloop
  endfacet
  facet normal 0.707107 -0.707107 0
    outer loop
      vertex -1.71137 1.82242 29
      vertex -1.82242 1.71137 30
      vertex -1.82242 1.71137 29
    endloop
  endfacet
  facet normal -0.156444 0.987687 0
    outer loop
      vertex 0.468452 -2.45572 29
      vertex 0.313333 -2.48029 30
      vertex 0.468452 -2.45572 30
    endloop
  endfacet
  facet normal -0.156444 0.987687 0
    outer loop
      vertex 0.313333 -2.48029 30
      vertex 0.468452 -2.45572 29
      vertex 0.313333 -2.48029 29
    endloop
  endfacet
  facet normal 0.661299 -0.750122 0
    outer loop
      vertex -1.71137 1.82242 29
      vertex -1.59356 1.92628 30
      vertex -1.71137 1.82242 30
    endloop
  endfacet
  facet normal 0.661299 -0.750122 0
    outer loop
      vertex -1.59356 1.92628 30
      vertex -1.71137 1.82242 29
      vertex -1.59356 1.92628 29
    endloop
  endfacet
  facet normal 0.218141 -0.975917 0
    outer loop
      vertex -0.621724 2.42146 29
      vertex -0.468452 2.45572 30
      vertex -0.621724 2.42146 30
    endloop
  endfacet
  facet normal 0.218141 -0.975917 0
    outer loop
      vertex -0.468452 2.45572 30
      vertex -0.621724 2.42146 29
      vertex -0.468452 2.45572 29
    endloop
  endfacet
  facet normal 0.156444 0.987687 -0
    outer loop
      vertex -0.313333 -2.48029 29
      vertex -0.468452 -2.45572 30
      vertex -0.313333 -2.48029 30
    endloop
  endfacet
  facet normal 0.156444 0.987687 0
    outer loop
      vertex -0.468452 -2.45572 30
      vertex -0.313333 -2.48029 29
      vertex -0.468452 -2.45572 29
    endloop
  endfacet
  facet normal -0.82706 -0.562113 0
    outer loop
      vertex 2.11082 1.33957 29
      vertex 2.02254 1.46946 30
      vertex 2.02254 1.46946 29
    endloop
  endfacet
  facet normal -0.82706 -0.562113 0
    outer loop
      vertex 2.02254 1.46946 30
      vertex 2.11082 1.33957 29
      vertex 2.11082 1.33957 30
    endloop
  endfacet
  facet normal -0.995562 -0.0941078 0
    outer loop
      vertex 2.49507 0.156976 29
      vertex 2.48029 0.313333 30
      vertex 2.48029 0.313333 29
    endloop
  endfacet
  facet normal -0.995562 -0.0941078 0
    outer loop
      vertex 2.48029 0.313333 30
      vertex 2.49507 0.156976 29
      vertex 2.49507 0.156976 30
    endloop
  endfacet
  facet normal 0.156444 -0.987687 0
    outer loop
      vertex -0.468452 2.45572 29
      vertex -0.313333 2.48029 30
      vertex -0.468452 2.45572 30
    endloop
  endfacet
  facet normal 0.156444 -0.987687 0
    outer loop
      vertex -0.313333 2.48029 30
      vertex -0.468452 2.45572 29
      vertex -0.313333 2.48029 29
    endloop
  endfacet
  facet normal 0.940881 -0.338737 0
    outer loop
      vertex -2.37764 0.772542 30
      vertex -2.32444 0.920311 29
      vertex -2.32444 0.920311 30
    endloop
  endfacet
  facet normal 0.940881 -0.338737 0
    outer loop
      vertex -2.32444 0.920311 29
      vertex -2.37764 0.772542 30
      vertex -2.37764 0.772542 29
    endloop
  endfacet
  facet normal -0.917765 -0.397124 0
    outer loop
      vertex 2.32444 0.920311 29
      vertex 2.26207 1.06445 30
      vertex 2.26207 1.06445 29
    endloop
  endfacet
  facet normal -0.917765 -0.397124 0
    outer loop
      vertex 2.26207 1.06445 30
      vertex 2.32444 0.920311 29
      vertex 2.32444 0.920311 30
    endloop
  endfacet
  facet normal 0.790161 0.6129 0
    outer loop
      vertex -1.92628 -1.59356 30
      vertex -2.02254 -1.46946 29
      vertex -2.02254 -1.46946 30
    endloop
  endfacet
  facet normal 0.790161 0.6129 0
    outer loop
      vertex -2.02254 -1.46946 29
      vertex -1.92628 -1.59356 30
      vertex -1.92628 -1.59356 29
    endloop
  endfacet
  facet normal -0.860745 -0.509036 0
    outer loop
      vertex 2.19077 1.20438 29
      vertex 2.11082 1.33957 30
      vertex 2.11082 1.33957 29
    endloop
  endfacet
  facet normal -0.860745 -0.509036 0
    outer loop
      vertex 2.11082 1.33957 30
      vertex 2.19077 1.20438 29
      vertex 2.19077 1.20438 30
    endloop
  endfacet
  facet normal 0.454001 0.891001 -0
    outer loop
      vertex -1.06445 -2.26207 29
      vertex -1.20438 -2.19077 30
      vertex -1.06445 -2.26207 30
    endloop
  endfacet
  facet normal 0.454001 0.891001 0
    outer loop
      vertex -1.20438 -2.19077 30
      vertex -1.06445 -2.26207 29
      vertex -1.20438 -2.19077 29
    endloop
  endfacet
  facet normal -0.707107 -0.707107 0
    outer loop
      vertex 1.82242 1.71137 29
      vertex 1.71137 1.82242 30
      vertex 1.71137 1.82242 29
    endloop
  endfacet
  facet normal -0.707107 -0.707107 0
    outer loop
      vertex 1.71137 1.82242 30
      vertex 1.82242 1.71137 29
      vertex 1.82242 1.71137 30
    endloop
  endfacet
  facet normal -0.509036 -0.860745 0
    outer loop
      vertex 1.20438 2.19077 29
      vertex 1.33957 2.11082 30
      vertex 1.20438 2.19077 30
    endloop
  endfacet
  facet normal -0.509036 -0.860745 -0
    outer loop
      vertex 1.33957 2.11082 30
      vertex 1.20438 2.19077 29
      vertex 1.33957 2.11082 29
    endloop
  endfacet
  facet normal -0.279011 0.960288 0
    outer loop
      vertex 0.772542 -2.37764 29
      vertex 0.621724 -2.42146 30
      vertex 0.772542 -2.37764 30
    endloop
  endfacet
  facet normal -0.279011 0.960288 0
    outer loop
      vertex 0.621724 -2.42146 30
      vertex 0.772542 -2.37764 29
      vertex 0.621724 -2.42146 29
    endloop
  endfacet
  facet normal -0.6129 -0.790161 0
    outer loop
      vertex 1.46946 2.02254 29
      vertex 1.59356 1.92628 30
      vertex 1.46946 2.02254 30
    endloop
  endfacet
  facet normal -0.6129 -0.790161 -0
    outer loop
      vertex 1.59356 1.92628 30
      vertex 1.46946 2.02254 29
      vertex 1.59356 1.92628 29
    endloop
  endfacet
  facet normal -0.940881 0.338737 0
    outer loop
      vertex 2.32444 -0.920311 29
      vertex 2.37764 -0.772542 30
      vertex 2.37764 -0.772542 29
    endloop
  endfacet
  facet normal -0.940881 0.338737 0
    outer loop
      vertex 2.37764 -0.772542 30
      vertex 2.32444 -0.920311 29
      vertex 2.32444 -0.920311 30
    endloop
  endfacet
  facet normal -0.917765 0.397124 0
    outer loop
      vertex 2.26207 -1.06445 29
      vertex 2.32444 -0.920311 30
      vertex 2.32444 -0.920311 29
    endloop
  endfacet
  facet normal -0.917765 0.397124 0
    outer loop
      vertex 2.32444 -0.920311 30
      vertex 2.26207 -1.06445 29
      vertex 2.26207 -1.06445 30
    endloop
  endfacet
  facet normal -0.891001 -0.454001 0
    outer loop
      vertex 2.26207 1.06445 29
      vertex 2.19077 1.20438 30
      vertex 2.19077 1.20438 29
    endloop
  endfacet
  facet normal -0.891001 -0.454001 0
    outer loop
      vertex 2.19077 1.20438 30
      vertex 2.26207 1.06445 29
      vertex 2.26207 1.06445 30
    endloop
  endfacet
  facet normal -0.562113 0.82706 0
    outer loop
      vertex 1.46946 -2.02254 29
      vertex 1.33957 -2.11082 30
      vertex 1.46946 -2.02254 30
    endloop
  endfacet
  facet normal -0.562113 0.82706 0
    outer loop
      vertex 1.33957 -2.11082 30
      vertex 1.46946 -2.02254 29
      vertex 1.33957 -2.11082 29
    endloop
  endfacet
  facet normal 0.891001 0.454001 0
    outer loop
      vertex -2.19077 -1.20438 30
      vertex -2.26207 -1.06445 29
      vertex -2.26207 -1.06445 30
    endloop
  endfacet
  facet normal 0.891001 0.454001 0
    outer loop
      vertex -2.26207 -1.06445 29
      vertex -2.19077 -1.20438 30
      vertex -2.19077 -1.20438 29
    endloop
  endfacet
  facet normal -0.0941078 -0.995562 0
    outer loop
      vertex 0.156976 2.49507 29
      vertex 0.313333 2.48029 30
      vertex 0.156976 2.49507 30
    endloop
  endfacet
  facet normal -0.0941078 -0.995562 -0
    outer loop
      vertex 0.313333 2.48029 30
      vertex 0.156976 2.49507 29
      vertex 0.313333 2.48029 29
    endloop
  endfacet
  facet normal -0.6129 0.790161 0
    outer loop
      vertex 1.59356 -1.92628 29
      vertex 1.46946 -2.02254 30
      vertex 1.59356 -1.92628 30
    endloop
  endfacet
  facet normal -0.6129 0.790161 0
    outer loop
      vertex 1.46946 -2.02254 30
      vertex 1.59356 -1.92628 29
      vertex 1.46946 -2.02254 29
    endloop
  endfacet
  facet normal -0.218141 0.975917 0
    outer loop
      vertex 0.621724 -2.42146 29
      vertex 0.468452 -2.45572 30
      vertex 0.621724 -2.42146 30
    endloop
  endfacet
  facet normal -0.218141 0.975917 0
    outer loop
      vertex 0.468452 -2.45572 30
      vertex 0.621724 -2.42146 29
      vertex 0.468452 -2.45572 29
    endloop
  endfacet
  facet normal 0.562113 -0.82706 0
    outer loop
      vertex -1.46946 2.02254 29
      vertex -1.33957 2.11082 30
      vertex -1.46946 2.02254 30
    endloop
  endfacet
  facet normal 0.562113 -0.82706 0
    outer loop
      vertex -1.33957 2.11082 30
      vertex -1.46946 2.02254 29
      vertex -1.33957 2.11082 29
    endloop
  endfacet
  facet normal 0.509036 0.860745 -0
    outer loop
      vertex -1.20438 -2.19077 29
      vertex -1.33957 -2.11082 30
      vertex -1.20438 -2.19077 30
    endloop
  endfacet
  facet normal 0.509036 0.860745 0
    outer loop
      vertex -1.33957 -2.11082 30
      vertex -1.20438 -2.19077 29
      vertex -1.33957 -2.11082 29
    endloop
  endfacet
  facet normal -0.562113 -0.82706 0
    outer loop
      vertex 1.33957 2.11082 29
      vertex 1.46946 2.02254 30
      vertex 1.33957 2.11082 30
    endloop
  endfacet
  facet normal -0.562113 -0.82706 -0
    outer loop
      vertex 1.46946 2.02254 30
      vertex 1.33957 2.11082 29
      vertex 1.46946 2.02254 29
    endloop
  endfacet
  facet normal -0.82706 0.562113 0
    outer loop
      vertex 2.02254 -1.46946 29
      vertex 2.11082 -1.33957 30
      vertex 2.11082 -1.33957 29
    endloop
  endfacet
  facet normal -0.82706 0.562113 0
    outer loop
      vertex 2.11082 -1.33957 30
      vertex 2.02254 -1.46946 29
      vertex 2.02254 -1.46946 30
    endloop
  endfacet
  facet normal -0.0313906 0.999507 0
    outer loop
      vertex 0.156976 -2.49507 29
      vertex 0 -2.5 30
      vertex 0.156976 -2.49507 30
    endloop
  endfacet
  facet normal -0.0313906 0.999507 0
    outer loop
      vertex 0 -2.5 30
      vertex 0.156976 -2.49507 29
      vertex 0 -2.5 29
    endloop
  endfacet
  facet normal 0.338737 -0.940881 0
    outer loop
      vertex -0.920311 2.32444 29
      vertex -0.772542 2.37764 30
      vertex -0.920311 2.32444 30
    endloop
  endfacet
  facet normal 0.338737 -0.940881 0
    outer loop
      vertex -0.772542 2.37764 30
      vertex -0.920311 2.32444 29
      vertex -0.772542 2.37764 29
    endloop
  endfacet
  facet normal -0.397124 -0.917765 0
    outer loop
      vertex 0.920311 2.32444 29
      vertex 1.06445 2.26207 30
      vertex 0.920311 2.32444 30
    endloop
  endfacet
  facet normal -0.397124 -0.917765 -0
    outer loop
      vertex 1.06445 2.26207 30
      vertex 0.920311 2.32444 29
      vertex 1.06445 2.26207 29
    endloop
  endfacet
  facet normal -0.0313906 -0.999507 0
    outer loop
      vertex 0 2.5 29
      vertex 0.156976 2.49507 30
      vertex 0 2.5 30
    endloop
  endfacet
  facet normal -0.0313906 -0.999507 -0
    outer loop
      vertex 0.156976 2.49507 30
      vertex 0 2.5 29
      vertex 0.156976 2.49507 29
    endloop
  endfacet
  facet normal -0.661299 -0.750122 0
    outer loop
      vertex 1.59356 1.92628 29
      vertex 1.71137 1.82242 30
      vertex 1.59356 1.92628 30
    endloop
  endfacet
  facet normal -0.661299 -0.750122 -0
    outer loop
      vertex 1.71137 1.82242 30
      vertex 1.59356 1.92628 29
      vertex 1.71137 1.82242 29
    endloop
  endfacet
  facet normal 0.995562 0.0941078 0
    outer loop
      vertex -2.48029 -0.313333 30
      vertex -2.49507 -0.156976 29
      vertex -2.49507 -0.156976 30
    endloop
  endfacet
  facet normal 0.995562 0.0941078 0
    outer loop
      vertex -2.49507 -0.156976 29
      vertex -2.48029 -0.313333 30
      vertex -2.48029 -0.313333 29
    endloop
  endfacet
  facet normal -0.509036 0.860745 0
    outer loop
      vertex 1.33957 -2.11082 29
      vertex 1.20438 -2.19077 30
      vertex 1.33957 -2.11082 30
    endloop
  endfacet
  facet normal -0.509036 0.860745 0
    outer loop
      vertex 1.20438 -2.19077 30
      vertex 1.33957 -2.11082 29
      vertex 1.20438 -2.19077 29
    endloop
  endfacet
  facet normal 0.987687 0.156444 0
    outer loop
      vertex -2.45572 -0.468452 30
      vertex -2.48029 -0.313333 29
      vertex -2.48029 -0.313333 30
    endloop
  endfacet
  facet normal 0.987687 0.156444 0
    outer loop
      vertex -2.48029 -0.313333 29
      vertex -2.45572 -0.468452 30
      vertex -2.45572 -0.468452 29
    endloop
  endfacet
  facet normal -0.338737 0.940881 0
    outer loop
      vertex 0.920311 -2.32444 29
      vertex 0.772542 -2.37764 30
      vertex 0.920311 -2.32444 30
    endloop
  endfacet
  facet normal -0.338737 0.940881 0
    outer loop
      vertex 0.772542 -2.37764 30
      vertex 0.920311 -2.32444 29
      vertex 0.772542 -2.37764 29
    endloop
  endfacet
  facet normal -0.860745 0.509036 0
    outer loop
      vertex 2.11082 -1.33957 29
      vertex 2.19077 -1.20438 30
      vertex 2.19077 -1.20438 29
    endloop
  endfacet
  facet normal -0.860745 0.509036 0
    outer loop
      vertex 2.19077 -1.20438 30
      vertex 2.11082 -1.33957 29
      vertex 2.11082 -1.33957 30
    endloop
  endfacet
  facet normal 0.0941078 -0.995562 0
    outer loop
      vertex -0.313333 2.48029 29
      vertex -0.156976 2.49507 30
      vertex -0.313333 2.48029 30
    endloop
  endfacet
  facet normal 0.0941078 -0.995562 0
    outer loop
      vertex -0.156976 2.49507 30
      vertex -0.313333 2.48029 29
      vertex -0.156976 2.49507 29
    endloop
  endfacet
  facet normal 0.397124 -0.917765 0
    outer loop
      vertex -1.06445 2.26207 29
      vertex -0.920311 2.32444 30
      vertex -1.06445 2.26207 30
    endloop
  endfacet
  facet normal 0.397124 -0.917765 0
    outer loop
      vertex -0.920311 2.32444 30
      vertex -1.06445 2.26207 29
      vertex -0.920311 2.32444 29
    endloop
  endfacet
  facet normal 0.999507 -0.0313906 0
    outer loop
      vertex -2.5 0 30
      vertex -2.49507 0.156976 29
      vertex -2.49507 0.156976 30
    endloop
  endfacet
  facet normal 0.999507 -0.0313906 0
    outer loop
      vertex -2.49507 0.156976 29
      vertex -2.5 0 30
      vertex -2.5 0 29
    endloop
  endfacet
  facet normal -0.750122 0.661299 0
    outer loop
      vertex 1.82242 -1.71137 29
      vertex 1.92628 -1.59356 30
      vertex 1.92628 -1.59356 29
    endloop
  endfacet
  facet normal -0.750122 0.661299 0
    outer loop
      vertex 1.92628 -1.59356 30
      vertex 1.82242 -1.71137 29
      vertex 1.82242 -1.71137 30
    endloop
  endfacet
  facet normal -0.790161 -0.6129 0
    outer loop
      vertex 2.02254 1.46946 29
      vertex 1.92628 1.59356 30
      vertex 1.92628 1.59356 29
    endloop
  endfacet
  facet normal -0.790161 -0.6129 0
    outer loop
      vertex 1.92628 1.59356 30
      vertex 2.02254 1.46946 29
      vertex 2.02254 1.46946 30
    endloop
  endfacet
  facet normal 0.860745 -0.509036 0
    outer loop
      vertex -2.19077 1.20438 30
      vertex -2.11082 1.33957 29
      vertex -2.11082 1.33957 30
    endloop
  endfacet
  facet normal 0.860745 -0.509036 0
    outer loop
      vertex -2.11082 1.33957 29
      vertex -2.19077 1.20438 30
      vertex -2.19077 1.20438 29
    endloop
  endfacet
  facet normal 0.960288 -0.279011 0
    outer loop
      vertex -2.42146 0.621724 30
      vertex -2.37764 0.772542 29
      vertex -2.37764 0.772542 30
    endloop
  endfacet
  facet normal 0.960288 -0.279011 0
    outer loop
      vertex -2.37764 0.772542 29
      vertex -2.42146 0.621724 30
      vertex -2.42146 0.621724 29
    endloop
  endfacet
  facet normal 0.6129 -0.790161 0
    outer loop
      vertex -1.59356 1.92628 29
      vertex -1.46946 2.02254 30
      vertex -1.59356 1.92628 30
    endloop
  endfacet
  facet normal 0.6129 -0.790161 0
    outer loop
      vertex -1.46946 2.02254 30
      vertex -1.59356 1.92628 29
      vertex -1.46946 2.02254 29
    endloop
  endfacet
  facet normal 0.975917 0.218141 0
    outer loop
      vertex -2.42146 -0.621724 30
      vertex -2.45572 -0.468452 29
      vertex -2.45572 -0.468452 30
    endloop
  endfacet
  facet normal 0.975917 0.218141 0
    outer loop
      vertex -2.45572 -0.468452 29
      vertex -2.42146 -0.621724 30
      vertex -2.42146 -0.621724 29
    endloop
  endfacet
  facet normal 0.279011 0.960288 -0
    outer loop
      vertex -0.621724 -2.42146 29
      vertex -0.772542 -2.37764 30
      vertex -0.621724 -2.42146 30
    endloop
  endfacet
  facet normal 0.279011 0.960288 0
    outer loop
      vertex -0.772542 -2.37764 30
      vertex -0.621724 -2.42146 29
      vertex -0.772542 -2.37764 29
    endloop
  endfacet
  facet normal -0.707107 0.707107 0
    outer loop
      vertex 1.71137 -1.82242 29
      vertex 1.82242 -1.71137 30
      vertex 1.82242 -1.71137 29
    endloop
  endfacet
  facet normal -0.707107 0.707107 0
    outer loop
      vertex 1.82242 -1.71137 30
      vertex 1.71137 -1.82242 29
      vertex 1.71137 -1.82242 30
    endloop
  endfacet
  facet normal 0.917765 0.397124 0
    outer loop
      vertex -2.26207 -1.06445 30
      vertex -2.32444 -0.920311 29
      vertex -2.32444 -0.920311 30
    endloop
  endfacet
  facet normal 0.917765 0.397124 0
    outer loop
      vertex -2.32444 -0.920311 29
      vertex -2.26207 -1.06445 30
      vertex -2.26207 -1.06445 29
    endloop
  endfacet
  facet normal -0.790161 0.6129 0
    outer loop
      vertex 1.92628 -1.59356 29
      vertex 2.02254 -1.46946 30
      vertex 2.02254 -1.46946 29
    endloop
  endfacet
  facet normal -0.790161 0.6129 0
    outer loop
      vertex 2.02254 -1.46946 30
      vertex 1.92628 -1.59356 29
      vertex 1.92628 -1.59356 30
    endloop
  endfacet
  facet normal -0.397124 0.917765 0
    outer loop
      vertex 1.06445 -2.26207 29
      vertex 0.920311 -2.32444 30
      vertex 1.06445 -2.26207 30
    endloop
  endfacet
  facet normal -0.397124 0.917765 0
    outer loop
      vertex 0.920311 -2.32444 30
      vertex 1.06445 -2.26207 29
      vertex 0.920311 -2.32444 29
    endloop
  endfacet
  facet normal -0.454001 0.891001 0
    outer loop
      vertex 1.20438 -2.19077 29
      vertex 1.06445 -2.26207 30
      vertex 1.20438 -2.19077 30
    endloop
  endfacet
  facet normal -0.454001 0.891001 0
    outer loop
      vertex 1.06445 -2.26207 30
      vertex 1.20438 -2.19077 29
      vertex 1.06445 -2.26207 29
    endloop
  endfacet
  facet normal -0.338737 -0.940881 0
    outer loop
      vertex 0.772542 2.37764 29
      vertex 0.920311 2.32444 30
      vertex 0.772542 2.37764 30
    endloop
  endfacet
  facet normal -0.338737 -0.940881 -0
    outer loop
      vertex 0.920311 2.32444 30
      vertex 0.772542 2.37764 29
      vertex 0.920311 2.32444 29
    endloop
  endfacet
  facet normal 0.0313906 0.999507 -0
    outer loop
      vertex 0 -2.5 29
      vertex -0.156976 -2.49507 30
      vertex 0 -2.5 30
    endloop
  endfacet
  facet normal 0.0313906 0.999507 0
    outer loop
      vertex -0.156976 -2.49507 30
      vertex 0 -2.5 29
      vertex -0.156976 -2.49507 29
    endloop
  endfacet
  facet normal 0.975917 -0.218141 0
    outer loop
      vertex -2.45572 0.468452 30
      vertex -2.42146 0.621724 29
      vertex -2.42146 0.621724 30
    endloop
  endfacet
  facet normal 0.975917 -0.218141 0
    outer loop
      vertex -2.42146 0.621724 29
      vertex -2.45572 0.468452 30
      vertex -2.45572 0.468452 29
    endloop
  endfacet
  facet normal -0.975917 0.218141 0
    outer loop
      vertex 2.42146 -0.621724 29
      vertex 2.45572 -0.468452 30
      vertex 2.45572 -0.468452 29
    endloop
  endfacet
  facet normal -0.975917 0.218141 0
    outer loop
      vertex 2.45572 -0.468452 30
      vertex 2.42146 -0.621724 29
      vertex 2.42146 -0.621724 30
    endloop
  endfacet
  facet normal -0.279011 -0.960288 0
    outer loop
      vertex 0.621724 2.42146 29
      vertex 0.772542 2.37764 30
      vertex 0.621724 2.42146 30
    endloop
  endfacet
  facet normal -0.279011 -0.960288 -0
    outer loop
      vertex 0.772542 2.37764 30
      vertex 0.621724 2.42146 29
      vertex 0.772542 2.37764 29
    endloop
  endfacet
  facet normal 0.960288 0.279011 0
    outer loop
      vertex -2.37764 -0.772542 30
      vertex -2.42146 -0.621724 29
      vertex -2.42146 -0.621724 30
    endloop
  endfacet
  facet normal 0.960288 0.279011 0
    outer loop
      vertex -2.42146 -0.621724 29
      vertex -2.37764 -0.772542 30
      vertex -2.37764 -0.772542 29
    endloop
  endfacet
  facet normal -0.960288 0.279011 0
    outer loop
      vertex 2.37764 -0.772542 29
      vertex 2.42146 -0.621724 30
      vertex 2.42146 -0.621724 29
    endloop
  endfacet
  facet normal -0.960288 0.279011 0
    outer loop
      vertex 2.42146 -0.621724 30
      vertex 2.37764 -0.772542 29
      vertex 2.37764 -0.772542 30
    endloop
  endfacet
  facet normal 0.891001 -0.454001 0
    outer loop
      vertex -2.26207 1.06445 30
      vertex -2.19077 1.20438 29
      vertex -2.19077 1.20438 30
    endloop
  endfacet
  facet normal 0.891001 -0.454001 0
    outer loop
      vertex -2.19077 1.20438 29
      vertex -2.26207 1.06445 30
      vertex -2.26207 1.06445 29
    endloop
  endfacet
  facet normal 0.917765 -0.397124 0
    outer loop
      vertex -2.32444 0.920311 30
      vertex -2.26207 1.06445 29
      vertex -2.26207 1.06445 30
    endloop
  endfacet
  facet normal 0.917765 -0.397124 0
    outer loop
      vertex -2.26207 1.06445 29
      vertex -2.32444 0.920311 30
      vertex -2.32444 0.920311 29
    endloop
  endfacet
  facet normal -0.218141 -0.975917 0
    outer loop
      vertex 0.468452 2.45572 29
      vertex 0.621724 2.42146 30
      vertex 0.468452 2.45572 30
    endloop
  endfacet
  facet normal -0.218141 -0.975917 -0
    outer loop
      vertex 0.621724 2.42146 30
      vertex 0.468452 2.45572 29
      vertex 0.621724 2.42146 29
    endloop
  endfacet
  facet normal 0.82706 -0.562113 0
    outer loop
      vertex -2.11082 1.33957 30
      vertex -2.02254 1.46946 29
      vertex -2.02254 1.46946 30
    endloop
  endfacet
  facet normal 0.82706 -0.562113 0
    outer loop
      vertex -2.02254 1.46946 29
      vertex -2.11082 1.33957 30
      vertex -2.11082 1.33957 29
    endloop
  endfacet
  facet normal 0.790161 -0.6129 0
    outer loop
      vertex -2.02254 1.46946 30
      vertex -1.92628 1.59356 29
      vertex -1.92628 1.59356 30
    endloop
  endfacet
  facet normal 0.790161 -0.6129 0
    outer loop
      vertex -1.92628 1.59356 29
      vertex -2.02254 1.46946 30
      vertex -2.02254 1.46946 29
    endloop
  endfacet
  facet normal -0.661299 0.750122 0
    outer loop
      vertex 1.71137 -1.82242 29
      vertex 1.59356 -1.92628 30
      vertex 1.71137 -1.82242 30
    endloop
  endfacet
  facet normal -0.661299 0.750122 0
    outer loop
      vertex 1.59356 -1.92628 30
      vertex 1.71137 -1.82242 29
      vertex 1.59356 -1.92628 29
    endloop
  endfacet
  facet normal 0.661299 0.750122 -0
    outer loop
      vertex -1.59356 -1.92628 29
      vertex -1.71137 -1.82242 30
      vertex -1.59356 -1.92628 30
    endloop
  endfacet
  facet normal 0.661299 0.750122 0
    outer loop
      vertex -1.71137 -1.82242 30
      vertex -1.59356 -1.92628 29
      vertex -1.71137 -1.82242 29
    endloop
  endfacet
  facet normal 0.397124 0.917765 -0
    outer loop
      vertex -0.920311 -2.32444 29
      vertex -1.06445 -2.26207 30
      vertex -0.920311 -2.32444 30
    endloop
  endfacet
  facet normal 0.397124 0.917765 0
    outer loop
      vertex -1.06445 -2.26207 30
      vertex -0.920311 -2.32444 29
      vertex -1.06445 -2.26207 29
    endloop
  endfacet
  facet normal 0 0 -1
    outer loop
      vertex 25 -19 25
      vertex 29 20 25
      vertex 29 -19 25
    endloop
  endfacet
  facet normal -0 0 -1
    outer loop
      vertex 29 20 25
      vertex 25 -19 25
      vertex 25 20 25
    endloop
  endfacet
  facet normal -1 0 0
    outer loop
      vertex 25 -19 25
      vertex 25 20 29
      vertex 25 20 25
    endloop
  endfacet
  facet normal -1 -0 0
    outer loop
      vertex 25 20 29
      vertex 25 -19 25
      vertex 25 -19 29
    endloop
  endfacet
  facet normal 1 -0 0
    outer loop
      vertex -25 -19 -25
      vertex -25 20 -29
      vertex -25 20 -25
    endloop
  endfacet
  facet normal 1 0 0
    outer loop
      vertex -25 20 -29
      vertex -25 -19 -25
      vertex -25 -19 -29
    endloop
  endfacet
  facet normal -0 0 1
    outer loop
      vertex -29 20 -25
      vertex -25 -19 -25
      vertex -25 20 -25
    endloop
  endfacet
  facet normal 0 0 1
    outer loop
      vertex -25 -19 -25
      vertex -29 20 -25
      vertex -29 -19 -25
    endloop
  endfacet
  facet normal 1 -0 0
    outer loop
      vertex -25 -19 29
      vertex -25 20 25
      vertex -25 20 29
    endloop
  endfacet
  facet normal 1 0 0
    outer loop
      vertex -25 20 25
      vertex -25 -19 29
      vertex -25 -19 25
    endloop
  endfacet
  facet normal 0 0 -1
    outer loop
      vertex -29 -19 25
      vertex -25 20 25
      vertex -25 -19 25
    endloop
  endfacet
  facet normal -0 0 -1
    outer loop
      vertex -25 20 25
      vertex -29 -19 25
      vertex -29 20 25
    endloop
  endfacet
  facet normal -0 0 1
    outer loop
      vertex 25 20 -25
      vertex 29 -19 -25
      vertex 29 20 -25
    endloop
  endfacet
  facet normal 0 0 1
    outer loop
      vertex 29 -19 -25
      vertex 25 20 -25
      vertex 25 -19 -25
    endloop
  endfacet
  facet normal -1 0 0
    outer loop
      vertex 25 -19 -29
      vertex 25 20 -25
      vertex 25 20 -29
    endloop
  endfacet
  facet normal -1 -0 0
    outer loop
      vertex 25 20 -25
      vertex 25 -19 -29
      vertex 25 -19 -25
    endloop
  endfacet
  facet normal 1 -0 0
    outer loop
      vertex 30 39 30
      vertex 30 41 -30
      vertex 30 41 30
    endloop
  endfacet
  facet normal 1 0 0
    outer loop
      vertex 30 41 -30
      vertex 30 39 30
      vertex 30 39 -30
    endloop
  endfacet
  facet normal -0 0 1
    outer loop
      vertex -30 41 30
      vertex 30 39 30
      vertex 30 41 30
    endloop
  endfacet
  facet normal 0 0 1
    outer loop
      vertex 30 39 30
      vertex -30 41 30
      vertex -30 39 30
    endloop
  endfacet
  facet normal 0 0 -1
    outer loop
      vertex -30 39 -30
      vertex 30 41 -30
      vertex 30 39 -30
    endloop
  endfacet
  facet normal -0 0 -1
    outer loop
      vertex 30 41 -30
      vertex -30 39 -30
      vertex -30 41 -30
    endloop
  endfacet
  facet normal -1 0 0
    outer loop
      vertex -30 39 -30
      vertex -30 41 30
      vertex -30 41 -30
    endloop
  endfacet
  facet normal -1 -0 0
    outer loop
      vertex -30 41 30
      vertex -30 39 -30
      vertex -30 39 30
    endloop
  endfacet
  facet normal 0 1 -0
    outer loop
      vertex 30 41 -30
      vertex -30 41 30
      vertex 30 41 30
    endloop
  endfacet
  facet normal 0 1 0
    outer loop
      vertex -30 41 30
      vertex 30 41 -30
      vertex -30 41 -30
    endloop
  endfacet
  facet normal 0 -1 0
    outer loop
      vertex -27 39 -24
      vertex 27 39 24
      vertex -27 39 24
    endloop
  endfacet
  facet normal 0 -1 -0
    outer loop
      vertex 27 39 24
      vertex -27 39 -24
      vertex 27 39 -24
    endloop
  endfacet
  facet normal 0 -1 0
    outer loop
      vertex -30 39 30
      vertex -24 39 29
      vertex 30 39 30
    endloop
  endfacet
  facet normal 0 -1 0
    outer loop
      vertex -30 39 30
      vertex -24 39 27
      vertex -24 39 29
    endloop
  endfacet
  facet normal 0 -1 0
    outer loop
      vertex -30 39 30
      vertex -27 39 24
      vertex -24 39 27
    endloop
  endfacet
  facet normal 0 -1 0
    outer loop
      vertex -27 39 24
      vertex -30 39 30
      vertex -29 39 24
    endloop
  endfacet
  facet normal 0 -1 0
    outer loop
      vertex -30 39 30
      vertex -29 39 -24
      vertex -29 39 24
    endloop
  endfacet
  facet normal 0 -1 0
    outer loop
      vertex -30 39 -30
      vertex -27 39 -24
      vertex -29 39 -24
    endloop
  endfacet
  facet normal 0 -1 0
    outer loop
      vertex -27 39 -24
      vertex -24 39 -27
      vertex 27 39 -24
    endloop
  endfacet
  facet normal 0 -1 0
    outer loop
      vertex 24 39 -27
      vertex 27 39 -24
      vertex -24 39 -27
    endloop
  endfacet
  facet normal 0 -1 -0
    outer loop
      vertex -27 39 -24
      vertex -30 39 -30
      vertex -24 39 -27
    endloop
  endfacet
  facet normal 0 -1 -0
    outer loop
      vertex -24 39 -29
      vertex -30 39 -30
      vertex 24 39 -29
    endloop
  endfacet
  facet normal 0 -1 -0
    outer loop
      vertex -24 39 -27
      vertex -30 39 -30
      vertex -24 39 -29
    endloop
  endfacet
  facet normal 0 -1 0
    outer loop
      vertex -30 39 -30
      vertex -29 39 -24
      vertex -30 39 30
    endloop
  endfacet
  facet normal 0 -1 0
    outer loop
      vertex 24 39 29
      vertex 30 39 30
      vertex -24 39 29
    endloop
  endfacet
  facet normal 0 -1 0
    outer loop
      vertex 24 39 27
      vertex 30 39 30
      vertex 24 39 29
    endloop
  endfacet
  facet normal 0 -1 -0
    outer loop
      vertex -24 39 27
      vertex -27 39 24
      vertex 24 39 27
    endloop
  endfacet
  facet normal 0 -1 0
    outer loop
      vertex 27 39 24
      vertex 24 39 27
      vertex -27 39 24
    endloop
  endfacet
  facet normal 0 -1 0
    outer loop
      vertex 27 39 24
      vertex 30 39 30
      vertex 24 39 27
    endloop
  endfacet
  facet normal 0 -1 0
    outer loop
      vertex 29 39 24
      vertex 30 39 30
      vertex 27 39 24
    endloop
  endfacet
  facet normal 0 -1 0
    outer loop
      vertex 29 39 -24
      vertex 30 39 30
      vertex 29 39 24
    endloop
  endfacet
  facet normal 0 -1 0
    outer loop
      vertex 30 39 -30
      vertex 27 39 -24
      vertex 24 39 -27
    endloop
  endfacet
  facet normal 0 -1 0
    outer loop
      vertex 30 39 -30
      vertex 24 39 -27
      vertex 24 39 -29
    endloop
  endfacet
  facet normal 0 -1 0
    outer loop
      vertex 29 39 -24
      vertex 30 39 -30
      vertex 30 39 30
    endloop
  endfacet
  facet normal 0 -1 0
    outer loop
      vertex 27 39 -24
      vertex 30 39 -30
      vertex 29 39 -24
    endloop
  endfacet
  facet normal 0 -1 0
    outer loop
      vertex 30 39 -30
      vertex 24 39 -29
      vertex -30 39 -30
    endloop
  endfacet
  facet normal 1 -0 0
    outer loop
      vertex 24 37 29
      vertex 24 39 27
      vertex 24 39 29
    endloop
  endfacet
  facet normal 1 0 0
    outer loop
      vertex 24 39 27
      vertex 24 37 29
      vertex 24 37 27
    endloop
  endfacet
  facet normal -0 0 1
    outer loop
      vertex -24 39 29
      vertex 24 37 29
      vertex 24 39 29
    endloop
  endfacet
  facet normal 0 0 1
    outer loop
      vertex 24 37 29
      vertex -24 39 29
      vertex -24 37 29
    endloop
  endfacet
  facet normal 0 0 -1
    outer loop
      vertex -24 37 27
      vertex 24 39 27
      vertex 24 37 27
    endloop
  endfacet
  facet normal -0 0 -1
    outer loop
      vertex 24 39 27
      vertex -24 37 27
      vertex -24 39 27
    endloop
  endfacet
  facet normal -1 0 0
    outer loop
      vertex -24 37 27
      vertex -24 39 29
      vertex -24 39 27
    endloop
  endfacet
  facet normal -1 -0 0
    outer loop
      vertex -24 39 29
      vertex -24 37 27
      vertex -24 37 29
    endloop
  endfacet
  facet normal 0 -1 0
    outer loop
      vertex -24 37 27
      vertex 24 37 29
      vertex -24 37 29
    endloop
  endfacet
  facet normal 0 -1 -0
    outer loop
      vertex 24 37 29
      vertex -24 37 27
      vertex 24 37 27
    endloop
  endfacet
  facet normal 1 -0 0
    outer loop
      vertex 24 37 -27
      vertex 24 39 -29
      vertex 24 39 -27
    endloop
  endfacet
  facet normal 1 0 0
    outer loop
      vertex 24 39 -29
      vertex 24 37 -27
      vertex 24 37 -29
    endloop
  endfacet
  facet normal -0 0 1
    outer loop
      vertex -24 39 -27
      vertex 24 37 -27
      vertex 24 39 -27
    endloop
  endfacet
  facet normal 0 0 1
    outer loop
      vertex 24 37 -27
      vertex -24 39 -27
      vertex -24 37 -27
    endloop
  endfacet
  facet normal 0 0 -1
    outer loop
      vertex -24 37 -29
      vertex 24 39 -29
      vertex 24 37 -29
    endloop
  endfacet
  facet normal -0 0 -1
    outer loop
      vertex 24 39 -29
      vertex -24 37 -29
      vertex -24 39 -29
    endloop
  endfacet
  facet normal -1 0 0
    outer loop
      vertex -24 37 -29
      vertex -24 39 -27
      vertex -24 39 -29
    endloop
  endfacet
  facet normal -1 -0 0
    outer loop
      vertex -24 39 -27
      vertex -24 37 -29
      vertex -24 37 -27
    endloop
  endfacet
  facet normal 0 -1 0
    outer loop
      vertex -24 37 -29
      vertex 24 37 -27
      vertex -24 37 -27
    endloop
  endfacet
  facet normal 0 -1 -0
    outer loop
      vertex 24 37 -27
      vertex -24 37 -29
      vertex 24 37 -29
    endloop
  endfacet
  facet normal 0 0 -1
    outer loop
      vertex 27 37 -24
      vertex 29 39 -24
      vertex 29 37 -24
    endloop
  endfacet
  facet normal -0 0 -1
    outer loop
      vertex 29 39 -24
      vertex 27 37 -24
      vertex 27 39 -24
    endloop
  endfacet
  facet normal 1 -0 0
    outer loop
      vertex 29 37 24
      vertex 29 39 -24
      vertex 29 39 24
    endloop
  endfacet
  facet normal 1 0 0
    outer loop
      vertex 29 39 -24
      vertex 29 37 24
      vertex 29 37 -24
    endloop
  endfacet
  facet normal -1 0 0
    outer loop
      vertex 27 37 -24
      vertex 27 39 24
      vertex 27 39 -24
    endloop
  endfacet
  facet normal -1 -0 0
    outer loop
      vertex 27 39 24
      vertex 27 37 -24
      vertex 27 37 24
    endloop
  endfacet
  facet normal -0 0 1
    outer loop
      vertex 27 39 24
      vertex 29 37 24
      vertex 29 39 24
    endloop
  endfacet
  facet normal 0 0 1
    outer loop
      vertex 29 37 24
      vertex 27 39 24
      vertex 27 37 24
    endloop
  endfacet
  facet normal 0 -1 0
    outer loop
      vertex 27 37 -24
      vertex 29 37 24
      vertex 27 37 24
    endloop
  endfacet
  facet normal 0 -1 -0
    outer loop
      vertex 29 37 24
      vertex 27 37 -24
      vertex 29 37 -24
    endloop
  endfacet
  facet normal 0 0 -1
    outer loop
      vertex -29 37 -24
      vertex -27 39 -24
      vertex -27 37 -24
    endloop
  endfacet
  facet normal -0 0 -1
    outer loop
      vertex -27 39 -24
      vertex -29 37 -24
      vertex -29 39 -24
    endloop
  endfacet
  facet normal 1 -0 0
    outer loop
      vertex -27 37 24
      vertex -27 39 -24
      vertex -27 39 24
    endloop
  endfacet
  facet normal 1 0 0
    outer loop
      vertex -27 39 -24
      vertex -27 37 24
      vertex -27 37 -24
    endloop
  endfacet
  facet normal -1 0 0
    outer loop
      vertex -29 37 -24
      vertex -29 39 24
      vertex -29 39 -24
    endloop
  endfacet
  facet normal -1 -0 0
    outer loop
      vertex -29 39 24
      vertex -29 37 -24
      vertex -29 37 24
    endloop
  endfacet
  facet normal -0 0 1
    outer loop
      vertex -29 39 24
      vertex -27 37 24
      vertex -27 39 24
    endloop
  endfacet
  facet normal 0 0 1
    outer loop
      vertex -27 37 24
      vertex -29 39 24
      vertex -29 37 24
    endloop
  endfacet
  facet normal 0 -1 0
    outer loop
      vertex -29 37 -24
      vertex -27 37 24
      vertex -29 37 24
    endloop
  endfacet
  facet normal 0 -1 -0
    outer loop
      vertex -27 37 24
      vertex -29 37 -24
      vertex -27 37 -24
    endloop
  endfacet
endsolid OpenSCAD_Model
